<svg xmlns="http://www.w3.org/2000/svg" xmlns:xlink="http://www.w3.org/1999/xlink" width="300" zoomAndPan="magnify" viewBox="0 0 224.87999 74.999997" height="100" preserveAspectRatio="xMidYMid meet" version="1.0"><defs><g/></defs><g fill="#000000" fill-opacity="1"><g transform="translate(13.820997, 46.657217)"><g><path d="M 18.183594 -22.824219 C 18.183594 -22.59375 18.140625 -22.367188 18.050781 -22.1875 C 17.914062 -21.914062 17.640625 -21.824219 17.277344 -21.824219 C 16.867188 -21.824219 16.640625 -21.914062 16.546875 -22.1875 C 16.414062 -22.367188 16.367188 -22.59375 16.367188 -22.824219 L 16.367188 -26.277344 C 16.367188 -26.460938 16.414062 -26.6875 16.546875 -26.960938 C 16.640625 -27.140625 16.867188 -27.277344 17.277344 -27.277344 C 17.640625 -27.277344 17.914062 -27.140625 18.050781 -26.960938 C 18.140625 -26.6875 18.183594 -26.460938 18.183594 -26.277344 Z M 33.1875 -14.546875 L 45.464844 -14.546875 L 45.464844 -19.367188 L 47.738281 -19.367188 L 47.738281 -29.324219 L 45.464844 -29.324219 L 45.464844 -34.097656 L 33.1875 -34.097656 Z M 31.371094 -24.914062 C 31.371094 -28.277344 30.140625 -30.734375 27.777344 -32.277344 C 25.367188 -33.78125 21.867188 -34.550781 17.320312 -34.550781 C 12.683594 -34.550781 9.136719 -33.78125 6.773438 -32.277344 C 4.363281 -30.734375 3.183594 -28.277344 3.183594 -24.914062 L 3.183594 -24.140625 C 3.183594 -20.777344 4.363281 -18.320312 6.773438 -16.820312 C 9.136719 -15.277344 12.640625 -14.546875 17.320312 -14.546875 C 21.914062 -14.546875 25.414062 -15.277344 27.824219 -16.820312 C 30.1875 -18.320312 31.371094 -20.777344 31.371094 -24.140625 Z M 4.546875 -7.273438 L 33.28125 -7.273438 L 33.28125 -6.136719 L 4.546875 -6.136719 L 4.546875 6.820312 L 45.464844 6.820312 L 45.464844 0.863281 L 16.730469 0.863281 L 16.730469 -0.273438 L 45.464844 -0.273438 L 45.464844 -13.183594 L 4.546875 -13.183594 Z M 1.363281 -16.367188 L 2.320312 -16.367188 C 1.546875 -17.320312 0.953125 -18.457031 0.589844 -19.777344 C 0.183594 -21.050781 0 -22.503906 0 -24.140625 L 0 -24.914062 C 0 -29.371094 1.453125 -32.644531 4.410156 -34.6875 C 7.320312 -36.6875 11.59375 -37.734375 17.320312 -37.734375 C 22.867188 -37.734375 27.097656 -36.734375 30.007812 -34.78125 L 30.007812 -37.28125 L 48.644531 -37.28125 L 50.78125 -34.871094 L 50.78125 -32.507812 L 53.054688 -30.097656 L 53.054688 -14.046875 L 50.78125 -14.046875 L 50.78125 12.140625 L 3.773438 12.140625 L 1.363281 10.003906 Z M 1.363281 -16.367188 "/></g></g></g><g fill="#000000" fill-opacity="1"><g transform="translate(64.601381, 46.657217)"><g><path d="M 45.007812 -11.136719 L 45.007812 -18.230469 L 3.183594 -18.230469 L 3.183594 -11.136719 Z M 24.09375 -19.140625 C 25.914062 -19.640625 27.503906 -20.367188 28.914062 -21.367188 C 30.277344 -22.324219 31.414062 -23.367188 32.234375 -24.550781 C 32.871094 -23.550781 33.734375 -22.730469 34.824219 -22.09375 C 35.871094 -21.414062 36.960938 -20.867188 38.144531 -20.457031 C 39.28125 -20.003906 40.417969 -19.6875 41.597656 -19.503906 C 42.691406 -19.277344 43.691406 -19.140625 44.554688 -19.140625 L 44.554688 -28.460938 C 44.144531 -28.460938 43.597656 -28.597656 42.964844 -28.777344 C 42.234375 -28.960938 41.554688 -29.234375 40.917969 -29.6875 C 40.234375 -30.097656 39.644531 -30.6875 39.191406 -31.414062 C 38.644531 -32.097656 38.417969 -33.007812 38.417969 -34.097656 L 26.140625 -34.097656 C 26.140625 -32.871094 25.960938 -31.871094 25.597656 -31.140625 C 25.1875 -30.324219 24.6875 -29.734375 24.050781 -29.324219 C 23.414062 -29.734375 22.960938 -30.324219 22.59375 -31.140625 C 22.230469 -31.871094 22.050781 -32.871094 22.050781 -34.097656 L 9.773438 -34.097656 C 9.773438 -33.007812 9.5 -32.097656 9.046875 -31.414062 C 8.5 -30.6875 7.910156 -30.097656 7.273438 -29.6875 C 6.59375 -29.234375 5.910156 -28.960938 5.273438 -28.777344 C 4.546875 -28.597656 4 -28.460938 3.636719 -28.460938 L 3.636719 -19.140625 C 4.457031 -19.140625 5.457031 -19.277344 6.59375 -19.503906 C 7.683594 -19.6875 8.867188 -20.003906 10.046875 -20.457031 C 11.183594 -20.867188 12.273438 -21.414062 13.367188 -22.09375 C 14.367188 -22.730469 15.230469 -23.550781 15.957031 -24.550781 C 16.730469 -23.367188 17.820312 -22.324219 19.277344 -21.367188 C 20.640625 -20.367188 22.277344 -19.640625 24.09375 -19.140625 Z M 3.636719 -5.136719 L 32.371094 -5.136719 L 32.371094 -4 L 3.636719 -4 L 3.636719 6.820312 L 44.554688 6.820312 L 44.554688 1.953125 L 15.820312 1.953125 L 15.820312 0.816406 L 44.554688 0.816406 L 44.554688 -10.003906 L 3.636719 -10.003906 Z M 43.734375 -34.871094 C 43.734375 -33.960938 43.871094 -33.1875 44.144531 -32.644531 C 44.78125 -32.1875 45.464844 -31.914062 46.144531 -31.734375 C 46.78125 -31.550781 47.328125 -31.414062 47.738281 -31.414062 L 49.875 -29.003906 L 49.875 -19.457031 L 50.328125 -19.003906 L 50.328125 -5.820312 L 49.875 -5.820312 L 49.875 12.140625 L 2.863281 12.140625 L 0.453125 10.003906 L 0.453125 -7.773438 L 0 -7.957031 L 0 -21.414062 L 0.453125 -21.414062 L 0.453125 -31.414062 C 0.816406 -31.414062 1.363281 -31.550781 2.089844 -31.777344 C 2.726562 -31.960938 3.410156 -32.277344 4.089844 -32.734375 C 4.726562 -33.144531 5.320312 -33.734375 5.863281 -34.460938 C 6.320312 -35.1875 6.59375 -36.097656 6.59375 -37.28125 L 41.597656 -37.28125 Z M 43.734375 -34.871094 "/></g></g></g><g fill="#000000" fill-opacity="1"><g transform="translate(112.654075, 46.657217)"><g><path d="M 32.734375 -4.5 L 45.007812 -4.5 L 45.007812 -34.097656 L 32.734375 -34.097656 Z M 31.371094 -20.824219 C 30.234375 -21.003906 29.1875 -21.324219 28.234375 -21.730469 C 27.234375 -22.09375 26.414062 -22.59375 25.730469 -23.324219 C 25.003906 -23.960938 24.414062 -24.867188 24.050781 -25.960938 C 23.59375 -27.003906 23.414062 -28.324219 23.414062 -29.914062 L 23.414062 -34.097656 L 11.136719 -34.097656 L 11.136719 -29.914062 C 11.136719 -28.324219 10.910156 -27.003906 10.546875 -25.960938 C 10.09375 -24.867188 9.546875 -23.960938 8.867188 -23.324219 C 8.136719 -22.59375 7.273438 -22.09375 6.320312 -21.730469 C 5.320312 -21.324219 4.273438 -21.003906 3.183594 -20.824219 L 3.183594 -10.230469 C 4.546875 -10.320312 5.863281 -10.546875 7.230469 -10.867188 C 8.546875 -11.136719 9.820312 -11.546875 11.046875 -12.09375 C 12.230469 -12.59375 13.367188 -13.273438 14.457031 -14.140625 C 15.503906 -14.957031 16.457031 -15.957031 17.277344 -17.230469 C 18.09375 -15.957031 19.003906 -14.957031 20.09375 -14.140625 C 21.140625 -13.273438 22.277344 -12.59375 23.503906 -12.09375 C 24.6875 -11.546875 25.960938 -11.136719 27.324219 -10.867188 C 28.640625 -10.546875 30.007812 -10.320312 31.371094 -10.230469 Z M 16.367188 -9.09375 L 4.089844 -9.09375 L 4.089844 6.820312 L 45.007812 6.820312 L 45.007812 -3.136719 L 16.367188 -3.136719 Z M 28.734375 -27.640625 C 28.734375 -27.234375 28.734375 -26.734375 28.824219 -26.1875 C 28.871094 -25.597656 29.097656 -25.230469 29.550781 -25.050781 L 29.550781 -37.28125 L 48.191406 -37.28125 L 50.328125 -34.871094 L 50.328125 12.140625 L 3.320312 12.140625 L 0.910156 10.003906 L 0.910156 -6.09375 L 0 -6.730469 L 0 -23.503906 C 1.089844 -23.6875 2.136719 -23.960938 3.136719 -24.277344 C 4.089844 -24.550781 4.957031 -24.960938 5.683594 -25.460938 C 6.363281 -25.914062 6.910156 -26.550781 7.363281 -27.277344 C 7.730469 -28.003906 7.957031 -28.871094 7.957031 -29.914062 L 7.957031 -37.28125 L 26.597656 -37.28125 L 28.734375 -34.871094 Z M 21.6875 -6.320312 L 27.1875 -6.320312 C 26.140625 -6.59375 25.1875 -6.957031 24.277344 -7.320312 C 23.324219 -7.683594 22.460938 -8.09375 21.6875 -8.636719 Z M 21.6875 -6.320312 "/></g></g></g><g fill="#000000" fill-opacity="1"><g transform="translate(160.706768, 46.657217)"><g><path d="M 32.734375 -1.589844 L 16.367188 -1.589844 L 16.367188 -2.957031 L 32.734375 -2.957031 Z M 32.734375 -12.730469 L 45.007812 -12.730469 L 45.007812 -18.457031 L 47.28125 -18.457031 L 47.28125 -28.414062 L 45.007812 -28.414062 L 45.007812 -34.097656 L 32.734375 -34.097656 Z M 31.097656 -25.050781 L 31.097656 -34.097656 L 3.457031 -34.097656 L 3.457031 -25.050781 L 10.09375 -25.050781 C 9.410156 -23.914062 8.457031 -23.140625 7.273438 -22.6875 C 6.046875 -22.230469 4.683594 -21.914062 3.183594 -21.777344 L 3.183594 -12.503906 C 4.546875 -12.546875 5.863281 -12.683594 7.230469 -12.867188 C 8.546875 -13.046875 9.820312 -13.320312 11.046875 -13.777344 C 12.230469 -14.183594 13.367188 -14.777344 14.457031 -15.503906 C 15.503906 -16.183594 16.457031 -17.09375 17.277344 -18.277344 C 18.09375 -17.09375 19.003906 -16.183594 20.09375 -15.503906 C 21.140625 -14.777344 22.277344 -14.183594 23.503906 -13.777344 C 24.6875 -13.320312 25.960938 -13.046875 27.324219 -12.867188 C 28.640625 -12.683594 30.007812 -12.546875 31.371094 -12.503906 L 31.371094 -21.777344 C 29.824219 -21.914062 28.460938 -22.230469 27.277344 -22.6875 C 26.050781 -23.140625 25.097656 -23.914062 24.414062 -25.050781 Z M 16.367188 -11.367188 L 4.089844 -11.367188 L 4.089844 6.820312 L 45.007812 6.820312 L 45.007812 -11.367188 L 32.734375 -11.367188 L 32.734375 -10.003906 L 16.367188 -10.003906 Z M 0.910156 10.003906 L 0.910156 -8.546875 L 0 -9.183594 L 0 -24.6875 L 0.273438 -24.6875 L 0.273438 -37.28125 L 48.191406 -37.28125 L 50.328125 -34.871094 L 50.328125 -31.597656 L 52.601562 -29.1875 L 52.601562 -13.140625 L 50.328125 -13.140625 L 50.328125 12.140625 L 3.320312 12.140625 Z M 0.910156 10.003906 "/></g></g></g></svg>