<svg xmlns="http://www.w3.org/2000/svg" xmlns:xlink="http://www.w3.org/1999/xlink" width="500" zoomAndPan="magnify" viewBox="0 0 375 225" height="300" preserveAspectRatio="xMidYMid meet" version="1.0"><defs><g/><clipPath id="eb2407f424"><path d="M 267 48 L 298 48 L 298 88 L 267 88 Z M 267 48 " clip-rule="nonzero"/></clipPath><clipPath id="bf407ffcb4"><path d="M 250.664062 40.914062 L 299.90625 22.703125 L 317.335938 69.832031 L 268.09375 88.042969 Z M 250.664062 40.914062 " clip-rule="nonzero"/></clipPath><clipPath id="90228aa283"><path d="M 250.664062 40.914062 L 299.90625 22.703125 L 317.335938 69.832031 L 268.09375 88.042969 Z M 250.664062 40.914062 " clip-rule="nonzero"/></clipPath><clipPath id="5b2ce1ba52"><path d="M 292 45 L 309 45 L 309 54 L 292 54 Z M 292 45 " clip-rule="nonzero"/></clipPath><clipPath id="1b62f57f66"><path d="M 250.664062 40.914062 L 299.90625 22.703125 L 317.335938 69.832031 L 268.09375 88.042969 Z M 250.664062 40.914062 " clip-rule="nonzero"/></clipPath><clipPath id="4595c46d3d"><path d="M 250.664062 40.914062 L 299.90625 22.703125 L 317.335938 69.832031 L 268.09375 88.042969 Z M 250.664062 40.914062 " clip-rule="nonzero"/></clipPath><clipPath id="72f3c0d1bd"><path d="M 286 32 L 296 32 L 296 47 L 286 47 Z M 286 32 " clip-rule="nonzero"/></clipPath><clipPath id="86a2030c1e"><path d="M 250.664062 40.914062 L 299.90625 22.703125 L 317.335938 69.832031 L 268.09375 88.042969 Z M 250.664062 40.914062 " clip-rule="nonzero"/></clipPath><clipPath id="dbf0cdd505"><path d="M 250.664062 40.914062 L 299.90625 22.703125 L 317.335938 69.832031 L 268.09375 88.042969 Z M 250.664062 40.914062 " clip-rule="nonzero"/></clipPath><clipPath id="01270a9f28"><path d="M 271 32 L 281 32 L 281 46 L 271 46 Z M 271 32 " clip-rule="nonzero"/></clipPath><clipPath id="7649952aa3"><path d="M 250.664062 40.914062 L 299.90625 22.703125 L 317.335938 69.832031 L 268.09375 88.042969 Z M 250.664062 40.914062 " clip-rule="nonzero"/></clipPath><clipPath id="ca13ce7daf"><path d="M 250.664062 40.914062 L 299.90625 22.703125 L 317.335938 69.832031 L 268.09375 88.042969 Z M 250.664062 40.914062 " clip-rule="nonzero"/></clipPath><clipPath id="e1f515c25e"><path d="M 75 47 L 109 47 L 109 85 L 75 85 Z M 75 47 " clip-rule="nonzero"/></clipPath><clipPath id="9f23fe3f57"><path d="M 58.699219 76.808594 L 67.71875 25.085938 L 117.21875 33.71875 L 108.203125 85.4375 Z M 58.699219 76.808594 " clip-rule="nonzero"/></clipPath><clipPath id="6db8b1e9bc"><path d="M 58.699219 76.808594 L 67.71875 25.085938 L 117.21875 33.71875 L 108.203125 85.4375 Z M 58.699219 76.808594 " clip-rule="nonzero"/></clipPath><clipPath id="094a58ca30"><path d="M 87 29 L 96 29 L 96 47 L 87 47 Z M 87 29 " clip-rule="nonzero"/></clipPath><clipPath id="b1b147eb71"><path d="M 58.699219 76.808594 L 67.71875 25.085938 L 117.21875 33.71875 L 108.203125 85.4375 Z M 58.699219 76.808594 " clip-rule="nonzero"/></clipPath><clipPath id="1eba6c62bf"><path d="M 58.699219 76.808594 L 67.71875 25.085938 L 117.21875 33.71875 L 108.203125 85.4375 Z M 58.699219 76.808594 " clip-rule="nonzero"/></clipPath><clipPath id="8244fd8e45"><path d="M 72 34 L 83 34 L 83 49 L 72 49 Z M 72 34 " clip-rule="nonzero"/></clipPath><clipPath id="7f01876f59"><path d="M 58.699219 76.808594 L 67.71875 25.085938 L 117.21875 33.71875 L 108.203125 85.4375 Z M 58.699219 76.808594 " clip-rule="nonzero"/></clipPath><clipPath id="3c99b98f47"><path d="M 58.699219 76.808594 L 67.71875 25.085938 L 117.21875 33.71875 L 108.203125 85.4375 Z M 58.699219 76.808594 " clip-rule="nonzero"/></clipPath><clipPath id="241b9630fb"><path d="M 62 50 L 78 50 L 78 57 L 62 57 Z M 62 50 " clip-rule="nonzero"/></clipPath><clipPath id="d1d9dd803d"><path d="M 58.699219 76.808594 L 67.71875 25.085938 L 117.21875 33.71875 L 108.203125 85.4375 Z M 58.699219 76.808594 " clip-rule="nonzero"/></clipPath><clipPath id="06185a2fc0"><path d="M 58.699219 76.808594 L 67.71875 25.085938 L 117.21875 33.71875 L 108.203125 85.4375 Z M 58.699219 76.808594 " clip-rule="nonzero"/></clipPath><clipPath id="a0565487f3"><path d="M 124.628906 42 L 231.878906 42 L 231.878906 155.179688 L 124.628906 155.179688 Z M 124.628906 42 " clip-rule="nonzero"/></clipPath></defs><rect x="-37.5" width="450" fill="#ffffff" y="-22.5" height="270" fill-opacity="1"/><rect x="-37.5" width="450" fill="#ffffff" y="-22.5" height="270" fill-opacity="1"/><rect x="-37.5" width="450" fill="#ffffff" y="-22.5" height="270" fill-opacity="1"/><g clip-path="url(#eb2407f424)"><g clip-path="url(#bf407ffcb4)"><g clip-path="url(#90228aa283)"><path fill="#312e5f" d="M 270.332031 87.214844 C 270.621094 87.167969 270.886719 87.066406 271.136719 86.917969 L 295.910156 65.152344 C 296.261719 64.855469 296.539062 64.5 296.75 64.09375 C 296.960938 63.6875 297.085938 63.257812 297.125 62.800781 C 297.167969 62.34375 297.117188 61.898438 296.980469 61.460938 C 296.847656 61.027344 296.632812 60.632812 296.339844 60.28125 C 294.828125 58.46875 293.132812 56.847656 291.253906 55.414062 C 289.371094 53.984375 287.355469 52.78125 285.203125 51.804688 C 283.050781 50.828125 280.816406 50.105469 278.5 49.632812 C 276.183594 49.15625 273.839844 48.949219 271.476562 49 C 271.015625 49.007812 270.578125 49.105469 270.15625 49.285156 C 269.734375 49.464844 269.363281 49.71875 269.042969 50.046875 C 268.71875 50.375 268.472656 50.75 268.300781 51.171875 C 268.125 51.597656 268.039062 52.039062 268.039062 52.496094 L 267.535156 85.316406 C 267.539062 85.480469 267.5625 85.644531 267.605469 85.800781 C 267.648438 85.960938 267.710938 86.113281 267.789062 86.257812 C 267.871094 86.402344 267.964844 86.535156 268.074219 86.660156 C 268.1875 86.78125 268.308594 86.886719 268.445312 86.980469 C 268.582031 87.074219 268.730469 87.148438 268.882812 87.207031 C 269.039062 87.265625 269.195312 87.304688 269.359375 87.324219 C 269.523438 87.34375 269.6875 87.347656 269.855469 87.328125 C 270.019531 87.308594 270.179688 87.273438 270.332031 87.214844 Z M 271.929688 73.441406 C 272.996094 73.578125 274.003906 73.894531 274.957031 74.390625 C 275.808594 74.792969 276.582031 75.316406 277.273438 75.957031 L 271.792969 80.671875 Z M 272.042969 62.839844 C 272.679688 62.625 273.328125 62.472656 273.992188 62.375 C 274.65625 62.28125 275.320312 62.25 275.992188 62.28125 C 276.660156 62.308594 277.320312 62.402344 277.972656 62.554688 C 278.625 62.707031 279.257812 62.917969 279.867188 63.191406 C 280.480469 63.460938 281.0625 63.785156 281.613281 64.164062 C 282.164062 64.542969 282.675781 64.96875 283.144531 65.445312 C 283.617188 65.917969 284.039062 66.433594 284.414062 66.988281 C 284.789062 67.539062 285.109375 68.125 285.375 68.738281 L 280.316406 73.144531 C 279.226562 72.058594 277.984375 71.191406 276.585938 70.542969 C 275.089844 69.871094 273.519531 69.488281 271.882812 69.390625 Z M 272.175781 53.1875 C 274.105469 53.195312 276.011719 53.402344 277.894531 53.816406 C 279.777344 54.230469 281.59375 54.835938 283.347656 55.636719 C 285.101562 56.4375 286.746094 57.417969 288.289062 58.570312 C 289.832031 59.722656 291.230469 61.027344 292.492188 62.480469 L 288.636719 65.863281 C 287.871094 64.464844 286.90625 63.222656 285.742188 62.132812 C 284.578125 61.042969 283.269531 60.164062 281.820312 59.492188 C 280.3125 58.8125 278.734375 58.394531 277.085938 58.242188 C 275.433594 58.089844 273.804688 58.210938 272.195312 58.605469 Z M 272.175781 53.1875 " fill-opacity="1" fill-rule="nonzero"/></g></g></g><g clip-path="url(#5b2ce1ba52)"><g clip-path="url(#1b62f57f66)"><g clip-path="url(#4595c46d3d)"><path fill="#312e5f" d="M 292.480469 50.324219 C 292.347656 50.539062 292.257812 50.769531 292.210938 51.019531 C 292.160156 51.265625 292.160156 51.511719 292.199219 51.761719 C 292.242188 52.007812 292.324219 52.242188 292.453125 52.460938 C 292.578125 52.675781 292.738281 52.867188 292.933594 53.027344 C 293.128906 53.183594 293.34375 53.304688 293.585938 53.386719 C 293.824219 53.46875 294.070312 53.503906 294.320312 53.496094 C 294.574219 53.488281 294.816406 53.4375 295.050781 53.34375 C 295.285156 53.246094 295.492188 53.113281 295.679688 52.945312 C 295.820312 52.78125 299.058594 48.9375 306.363281 50.480469 C 306.753906 50.558594 307.136719 50.53125 307.511719 50.390625 C 307.851562 50.265625 308.136719 50.066406 308.375 49.792969 C 308.609375 49.519531 308.765625 49.207031 308.839844 48.855469 C 308.910156 48.589844 308.929688 48.324219 308.894531 48.054688 C 308.859375 47.785156 308.777344 47.53125 308.644531 47.292969 C 308.507812 47.054688 308.335938 46.851562 308.121094 46.683594 C 307.910156 46.515625 307.671875 46.390625 307.410156 46.316406 C 297.328125 44.261719 292.671875 50.054688 292.480469 50.324219 Z M 292.480469 50.324219 " fill-opacity="1" fill-rule="nonzero"/></g></g></g><g clip-path="url(#72f3c0d1bd)"><g clip-path="url(#86a2030c1e)"><g clip-path="url(#dbf0cdd505)"><path fill="#312e5f" d="M 290.828125 43.6875 C 291.613281 41.203125 292.777344 38.910156 294.328125 36.8125 C 294.59375 36.734375 294.835938 36.609375 295.054688 36.4375 C 295.269531 36.261719 295.445312 36.054688 295.578125 35.808594 C 295.710938 35.566406 295.792969 35.308594 295.824219 35.03125 C 295.855469 34.757812 295.832031 34.484375 295.753906 34.21875 C 295.675781 33.953125 295.550781 33.710938 295.375 33.496094 C 295.203125 33.28125 294.996094 33.105469 294.75 32.972656 C 294.507812 32.839844 294.246094 32.757812 293.972656 32.730469 C 293.695312 32.699219 293.425781 32.722656 293.15625 32.800781 C 290.871094 33.492188 289.171875 36.5 286.96875 42.113281 C 286.726562 42.671875 286.578125 43.105469 286.457031 43.328125 C 286.214844 43.703125 286.101562 44.117188 286.125 44.566406 C 286.148438 45.011719 286.300781 45.414062 286.582031 45.761719 C 286.863281 46.113281 287.21875 46.347656 287.652344 46.464844 C 288.085938 46.585938 288.515625 46.566406 288.9375 46.410156 C 289.269531 46.289062 289.554688 46.09375 289.792969 45.828125 C 290.25 45.167969 290.59375 44.457031 290.828125 43.6875 Z M 290.828125 43.6875 " fill-opacity="1" fill-rule="nonzero"/></g></g></g><g clip-path="url(#01270a9f28)"><g clip-path="url(#7649952aa3)"><g clip-path="url(#ca13ce7daf)"><path fill="#312e5f" d="M 278.210938 45.753906 C 278.566406 45.820312 278.910156 45.789062 279.25 45.660156 C 279.601562 45.523438 279.898438 45.3125 280.136719 45.015625 C 280.375 44.71875 280.523438 44.386719 280.578125 44.011719 C 280.644531 43.449219 280.664062 42.882812 280.640625 42.316406 C 280.617188 41.75 280.546875 41.1875 280.433594 40.632812 C 280.320312 40.078125 280.164062 39.535156 279.964844 39.003906 C 279.765625 38.476562 279.523438 37.964844 279.242188 37.472656 C 278.960938 36.980469 278.640625 36.511719 278.285156 36.070312 C 277.929688 35.628906 277.539062 35.21875 277.117188 34.839844 C 276.695312 34.460938 276.25 34.117188 275.773438 33.808594 C 275.296875 33.5 274.796875 33.230469 274.277344 33.003906 C 274.03125 32.914062 273.777344 32.871094 273.511719 32.875 C 273.25 32.878906 272.996094 32.933594 272.753906 33.035156 C 272.507812 33.136719 272.292969 33.277344 272.101562 33.460938 C 271.914062 33.640625 271.761719 33.851562 271.652344 34.089844 C 271.542969 34.328125 271.480469 34.578125 271.464844 34.84375 C 271.449219 35.105469 271.480469 35.359375 271.5625 35.609375 C 271.644531 35.859375 271.769531 36.085938 271.9375 36.289062 C 272.101562 36.492188 272.300781 36.65625 272.53125 36.785156 C 273.179688 37.046875 273.769531 37.402344 274.300781 37.855469 C 274.832031 38.308594 275.28125 38.835938 275.640625 39.433594 C 276.003906 40.03125 276.261719 40.667969 276.414062 41.351562 C 276.570312 42.03125 276.613281 42.71875 276.542969 43.414062 C 276.507812 43.679688 276.519531 43.941406 276.582031 44.199219 C 276.644531 44.460938 276.753906 44.699219 276.910156 44.917969 C 277.066406 45.132812 277.253906 45.316406 277.480469 45.460938 C 277.707031 45.605469 277.949219 45.703125 278.210938 45.753906 Z M 278.210938 45.753906 " fill-opacity="1" fill-rule="nonzero"/></g></g></g><g clip-path="url(#e1f515c25e)"><g clip-path="url(#9f23fe3f57)"><g clip-path="url(#6db8b1e9bc)"><path fill="#312e5f" d="M 108.613281 83.089844 C 108.714844 82.816406 108.761719 82.535156 108.757812 82.242188 L 102.402344 49.882812 C 102.320312 49.433594 102.15625 49.015625 101.910156 48.628906 C 101.664062 48.242188 101.355469 47.914062 100.980469 47.652344 C 100.605469 47.386719 100.195312 47.207031 99.75 47.105469 C 99.304688 47 98.855469 46.988281 98.40625 47.0625 C 96.078125 47.460938 93.824219 48.109375 91.644531 49.015625 C 89.460938 49.921875 87.40625 51.058594 85.480469 52.429688 C 83.554688 53.796875 81.804688 55.367188 80.230469 57.128906 C 78.65625 58.894531 77.296875 60.8125 76.152344 62.886719 C 75.929688 63.285156 75.792969 63.714844 75.734375 64.167969 C 75.679688 64.625 75.714844 65.074219 75.835938 65.515625 C 75.953125 65.957031 76.15625 66.359375 76.433594 66.722656 C 76.714844 67.085938 77.050781 67.382812 77.445312 67.613281 L 105.5625 84.550781 C 105.707031 84.632812 105.859375 84.691406 106.019531 84.734375 C 106.179688 84.777344 106.339844 84.800781 106.503906 84.804688 C 106.671875 84.808594 106.832031 84.792969 106.996094 84.757812 C 107.15625 84.726562 107.3125 84.671875 107.460938 84.601562 C 107.609375 84.527344 107.746094 84.441406 107.875 84.335938 C 108.003906 84.234375 108.117188 84.113281 108.21875 83.984375 C 108.316406 83.851562 108.402344 83.710938 108.46875 83.558594 C 108.535156 83.40625 108.582031 83.25 108.613281 83.089844 Z M 97.507812 74.78125 C 98.164062 73.929688 98.941406 73.214844 99.851562 72.644531 C 100.628906 72.109375 101.46875 71.703125 102.371094 71.425781 L 103.691406 78.535156 Z M 88.402344 69.351562 C 88.535156 68.695312 88.730469 68.058594 88.980469 67.4375 C 89.234375 66.816406 89.539062 66.222656 89.902344 65.660156 C 90.265625 65.097656 90.675781 64.570312 91.136719 64.085938 C 91.597656 63.597656 92.097656 63.15625 92.640625 62.765625 C 93.179688 62.371094 93.753906 62.03125 94.359375 61.746094 C 94.964844 61.460938 95.589844 61.234375 96.234375 61.066406 C 96.882812 60.898438 97.539062 60.789062 98.207031 60.746094 C 98.875 60.699219 99.539062 60.714844 100.203125 60.792969 L 101.464844 67.382812 C 99.980469 67.78125 98.605469 68.417969 97.34375 69.296875 C 96.011719 70.253906 94.890625 71.417969 93.984375 72.789062 Z M 80.125 64.386719 C 81.101562 62.71875 82.238281 61.179688 83.542969 59.757812 C 84.847656 58.335938 86.285156 57.070312 87.859375 55.960938 C 89.433594 54.847656 91.105469 53.917969 92.878906 53.164062 C 94.652344 52.410156 96.484375 51.855469 98.375 51.496094 L 99.359375 56.527344 C 97.765625 56.488281 96.203125 56.699219 94.675781 57.15625 C 93.152344 57.617188 91.734375 58.304688 90.425781 59.21875 C 89.078125 60.179688 87.921875 61.335938 86.964844 62.683594 C 86.003906 64.035156 85.289062 65.503906 84.816406 67.09375 Z M 80.125 64.386719 " fill-opacity="1" fill-rule="nonzero"/></g></g></g><g clip-path="url(#094a58ca30)"><g clip-path="url(#b1b147eb71)"><g clip-path="url(#1eba6c62bf)"><path fill="#312e5f" d="M 87.859375 45.394531 C 87.980469 45.617188 88.132812 45.8125 88.324219 45.976562 C 88.511719 46.144531 88.726562 46.269531 88.960938 46.359375 C 89.195312 46.449219 89.441406 46.492188 89.691406 46.492188 C 89.941406 46.492188 90.1875 46.449219 90.421875 46.359375 C 90.660156 46.273438 90.871094 46.144531 91.0625 45.980469 C 91.25 45.816406 91.40625 45.621094 91.527344 45.398438 C 91.648438 45.175781 91.726562 44.941406 91.761719 44.691406 C 91.796875 44.441406 91.785156 44.195312 91.730469 43.945312 C 91.660156 43.742188 89.96875 39.011719 94.976562 33.472656 C 95.242188 33.175781 95.40625 32.828125 95.476562 32.433594 C 95.539062 32.078125 95.511719 31.730469 95.394531 31.390625 C 95.273438 31.046875 95.082031 30.757812 94.816406 30.515625 C 94.621094 30.320312 94.402344 30.171875 94.152344 30.066406 C 93.902344 29.957031 93.640625 29.902344 93.367188 29.898438 C 93.09375 29.894531 92.832031 29.945312 92.578125 30.042969 C 92.324219 30.140625 92.097656 30.285156 91.902344 30.472656 C 85.058594 38.15625 87.722656 45.09375 87.859375 45.394531 Z M 87.859375 45.394531 " fill-opacity="1" fill-rule="nonzero"/></g></g></g><g clip-path="url(#8244fd8e45)"><g clip-path="url(#7f01876f59)"><g clip-path="url(#3c99b98f47)"><path fill="#312e5f" d="M 81.292969 43.484375 C 79.539062 41.558594 78.144531 39.398438 77.109375 37.003906 C 77.175781 36.734375 77.191406 36.460938 77.148438 36.1875 C 77.105469 35.910156 77.015625 35.65625 76.871094 35.417969 C 76.730469 35.179688 76.546875 34.980469 76.324219 34.8125 C 76.101562 34.648438 75.855469 34.535156 75.585938 34.46875 C 75.316406 34.398438 75.042969 34.386719 74.769531 34.429688 C 74.496094 34.472656 74.242188 34.5625 74.003906 34.707031 C 73.765625 34.851562 73.566406 35.035156 73.402344 35.257812 C 73.234375 35.480469 73.121094 35.730469 73.054688 36 C 72.5 38.320312 74.246094 41.300781 77.992188 46.03125 C 78.351562 46.519531 78.652344 46.867188 78.78125 47.082031 C 78.984375 47.484375 79.285156 47.785156 79.6875 47.992188 C 80.085938 48.199219 80.507812 48.265625 80.949219 48.199219 C 81.394531 48.132812 81.777344 47.941406 82.097656 47.628906 C 82.417969 47.3125 82.617188 46.933594 82.695312 46.488281 C 82.757812 46.140625 82.734375 45.796875 82.621094 45.457031 C 82.28125 44.730469 81.839844 44.074219 81.292969 43.484375 Z M 81.292969 43.484375 " fill-opacity="1" fill-rule="nonzero"/></g></g></g><g clip-path="url(#241b9630fb)"><g clip-path="url(#d1d9dd803d)"><g clip-path="url(#06185a2fc0)"><path fill="#312e5f" d="M 76.734375 55.429688 C 76.96875 55.15625 77.117188 54.84375 77.175781 54.488281 C 77.234375 54.113281 77.199219 53.746094 77.066406 53.394531 C 76.929688 53.039062 76.714844 52.746094 76.417969 52.507812 C 75.964844 52.167969 75.488281 51.867188 74.984375 51.601562 C 74.484375 51.335938 73.964844 51.113281 73.425781 50.933594 C 72.890625 50.753906 72.339844 50.613281 71.78125 50.519531 C 71.222656 50.425781 70.660156 50.378906 70.09375 50.375 C 69.527344 50.371094 68.960938 50.410156 68.402344 50.496094 C 67.839844 50.582031 67.292969 50.714844 66.75 50.886719 C 66.210938 51.0625 65.6875 51.277344 65.183594 51.53125 C 64.675781 51.789062 64.195312 52.085938 63.734375 52.417969 C 63.53125 52.585938 63.367188 52.785156 63.238281 53.015625 C 63.113281 53.246094 63.03125 53.492188 62.996094 53.753906 C 62.960938 54.015625 62.972656 54.273438 63.035156 54.527344 C 63.097656 54.785156 63.203125 55.019531 63.355469 55.234375 C 63.503906 55.449219 63.691406 55.628906 63.910156 55.777344 C 64.128906 55.921875 64.367188 56.019531 64.621094 56.078125 C 64.878906 56.132812 65.136719 56.136719 65.398438 56.09375 C 65.65625 56.050781 65.898438 55.964844 66.125 55.828125 C 66.675781 55.402344 67.28125 55.070312 67.941406 54.839844 C 68.601562 54.609375 69.28125 54.484375 69.976562 54.472656 C 70.675781 54.460938 71.359375 54.558594 72.023438 54.769531 C 72.691406 54.976562 73.304688 55.285156 73.875 55.695312 C 74.082031 55.859375 74.316406 55.980469 74.570312 56.058594 C 74.828125 56.132812 75.089844 56.160156 75.355469 56.132812 C 75.621094 56.109375 75.875 56.035156 76.113281 55.914062 C 76.351562 55.792969 76.558594 55.628906 76.734375 55.429688 Z M 76.734375 55.429688 " fill-opacity="1" fill-rule="nonzero"/></g></g></g><g clip-path="url(#a0565487f3)"><path fill="#ffffff" d="M 204.054688 119.183594 C 202.714844 120.148438 201.394531 121.140625 200.125 122.121094 C 200.261719 120.78125 200.226562 119.710938 200.226562 119.710938 C 200.226562 119.710938 201.90625 119.679688 204.054688 119.183594 Z M 221.136719 110.945312 C 218.738281 110.863281 215.523438 112.109375 212.042969 114.03125 C 212.210938 113.726562 212.363281 113.410156 212.496094 113.074219 C 215.46875 105.496094 220.371094 91.042969 211.496094 78.902344 C 208.046875 74.183594 200.1875 71.78125 193.871094 70.59375 C 193.601562 69.082031 193.421875 68.050781 193.421875 68.050781 C 193.421875 68.050781 195.972656 66.871094 196.914062 61.0625 C 197.78125 60.949219 198.898438 60.183594 199.515625 58.140625 C 200.511719 54.835938 197.558594 55.367188 197.558594 55.367188 C 197.449219 55.410156 197.351562 55.453125 197.253906 55.5 C 197.238281 54.925781 197.214844 54.324219 197.175781 53.699219 C 196.425781 41.429688 188.246094 42.265625 187.074219 42.097656 C 185.90625 41.929688 180.816406 43.097656 178.8125 46.769531 C 178.8125 46.769531 177.914062 50.796875 177.941406 55.460938 C 177.90625 55.445312 177.871094 55.429688 177.835938 55.414062 C 177.835938 55.414062 174.882812 54.882812 175.878906 58.1875 C 176.507812 60.273438 177.65625 61.027344 178.527344 61.117188 C 178.707031 61.910156 178.9375 62.679688 179.222656 63.414062 C 180.539062 66.800781 182.066406 68.386719 182.066406 68.386719 C 182.066406 68.386719 181.953125 68.878906 181.789062 69.695312 C 176.339844 70.140625 165.460938 71.46875 162.40625 74.394531 C 149.542969 86.734375 157.398438 106.941406 157.398438 106.941406 C 157.273438 110.945312 162.28125 110.820312 162.28125 113.824219 C 162.28125 115.773438 160.96875 119.875 160.246094 122.722656 C 152.574219 116.566406 141.75 108.878906 135.734375 109.070312 C 129.882812 109.253906 120.425781 120.179688 126.6875 128.316406 C 130.429688 133.179688 140.347656 139.210938 147.730469 143.28125 C 146.949219 144.53125 146.5625 146.03125 146.785156 147.667969 C 147.285156 151.339844 149.539062 152.839844 154.132812 152.757812 C 158.722656 152.671875 173.832031 152.007812 173.832031 152.007812 C 173.832031 152.007812 175.523438 151.308594 178.066406 150.253906 C 183.550781 152.519531 188.160156 154.425781 188.160156 154.425781 C 188.160156 154.425781 203.269531 155.09375 207.863281 155.175781 C 212.453125 155.261719 214.707031 153.757812 215.210938 150.085938 C 215.609375 147.164062 214.050781 144.667969 211.800781 143.265625 C 217.082031 140.953125 222.824219 137.804688 226.957031 134.03125 C 236.40625 125.410156 231.023438 111.292969 221.136719 110.945312 " fill-opacity="1" fill-rule="nonzero"/></g><path fill="#f1e510" d="M 134.074219 110.382812 C 133.867188 110.484375 133.664062 110.589844 133.476562 110.71875 C 133.09375 110.96875 132.738281 111.253906 132.390625 111.550781 C 131.699219 112.148438 131.054688 112.804688 130.488281 113.539062 C 129.925781 114.273438 129.457031 115.113281 129.234375 116.042969 C 129.128906 116.503906 129.074219 116.988281 129.117188 117.46875 C 129.152344 117.9375 129.277344 118.429688 129.683594 118.757812 C 129.777344 118.246094 129.703125 117.859375 129.695312 117.441406 C 129.6875 117.027344 129.769531 116.617188 129.890625 116.21875 C 130.128906 115.421875 130.59375 114.695312 131.105469 114.011719 C 131.632812 113.335938 132.246094 112.714844 132.910156 112.152344 C 133.238281 111.867188 133.582031 111.597656 133.917969 111.316406 C 134.085938 111.179688 134.246094 111.027344 134.410156 110.878906 C 134.570312 110.722656 134.765625 110.625 134.804688 110.265625 C 134.460938 110.140625 134.28125 110.289062 134.074219 110.382812 Z M 185.09375 41.753906 C 185.132812 41.78125 185.171875 41.800781 185.207031 41.808594 C 185.277344 41.828125 185.34375 41.808594 185.414062 41.804688 C 185.546875 41.785156 185.683594 41.769531 185.820312 41.742188 C 185.957031 41.722656 186.089844 41.683594 186.21875 41.632812 C 186.285156 41.609375 186.351562 41.582031 186.414062 41.554688 C 186.480469 41.527344 186.546875 41.511719 186.578125 41.238281 C 186.472656 40.984375 186.402344 40.984375 186.332031 40.980469 C 186.261719 40.96875 186.191406 40.960938 186.121094 40.957031 C 185.984375 40.945312 185.84375 40.945312 185.707031 40.964844 C 185.570312 40.976562 185.4375 41 185.300781 41.019531 C 185.234375 41.03125 185.164062 41.03125 185.101562 41.070312 C 185.066406 41.089844 185.039062 41.121094 185.007812 41.15625 C 184.996094 41.179688 184.976562 41.1875 184.964844 41.222656 C 184.953125 41.261719 184.949219 41.335938 184.949219 41.46875 C 184.984375 41.597656 185.011719 41.667969 185.035156 41.703125 C 185.054688 41.734375 185.074219 41.738281 185.09375 41.753906 Z M 179.515625 45.847656 C 179.601562 45.734375 179.683594 45.621094 179.761719 45.503906 C 179.910156 45.269531 180.046875 45.035156 180.199219 44.804688 C 180.503906 44.347656 180.855469 43.925781 181.242188 43.550781 C 181.632812 43.175781 182.074219 42.863281 182.546875 42.609375 L 182.910156 42.429688 C 183.035156 42.382812 183.164062 42.34375 183.292969 42.296875 L 183.488281 42.230469 C 183.554688 42.21875 183.621094 42.199219 183.683594 42.171875 C 183.8125 42.109375 183.941406 42.035156 184.078125 41.878906 C 183.773438 41.660156 183.445312 41.652344 183.152344 41.738281 C 183.003906 41.769531 182.851562 41.800781 182.703125 41.835938 L 182.265625 41.988281 C 181.699219 42.230469 181.152344 42.550781 180.710938 42.976562 C 180.257812 43.390625 179.871094 43.863281 179.539062 44.371094 C 179.371094 44.621094 179.214844 44.882812 179.097656 45.160156 C 179.039062 45.300781 179 45.449219 178.964844 45.597656 C 178.941406 45.75 178.855469 45.886719 179.074219 46.121094 C 179.390625 46.085938 179.417969 45.957031 179.515625 45.847656 Z M 206.609375 85.328125 L 206.609375 118.914062 C 206.609375 120.597656 205.246094 121.964844 203.5625 121.964844 L 150.804688 121.964844 C 149.121094 121.964844 147.757812 120.597656 147.757812 118.914062 L 147.757812 85.328125 C 147.757812 83.644531 149.121094 82.28125 150.804688 82.28125 L 203.5625 82.28125 C 205.246094 82.28125 206.609375 83.644531 206.609375 85.328125 " fill-opacity="1" fill-rule="nonzero"/><path fill="#312e5f" d="M 177.835938 55.414062 C 178.027344 55.488281 178.199219 55.570312 178.363281 55.664062 C 179.535156 54.339844 178.804688 47.976562 181.765625 47.886719 C 185.050781 47.792969 187.949219 51.460938 190.554688 49.335938 C 193.164062 47.210938 195.273438 47.3125 195.757812 50.882812 C 196.066406 53.152344 196.21875 55.109375 196.65625 55.863281 C 196.910156 55.667969 197.207031 55.5 197.558594 55.367188 C 197.558594 55.367188 197.785156 55.328125 198.09375 55.339844 C 199.285156 52.816406 199.292969 43.46875 192.296875 41.226562 C 182.8125 38.1875 177.613281 43.929688 177.132812 47.019531 C 177.132812 47.019531 176.363281 53.496094 177.257812 55.386719 C 177.585938 55.371094 177.835938 55.414062 177.835938 55.414062 Z M 180.027344 97.761719 C 179.667969 97.539062 179.25 97.40625 178.796875 97.40625 L 176.378906 97.40625 C 175.082031 97.40625 174.03125 98.457031 174.03125 99.753906 L 174.03125 102.167969 C 174.03125 103.464844 175.082031 104.515625 176.378906 104.515625 L 178.796875 104.515625 C 180.09375 104.515625 181.144531 103.464844 181.144531 102.167969 L 181.144531 101.46875 C 180.949219 101.535156 180.742188 101.578125 180.527344 101.578125 C 179.453125 101.578125 178.582031 100.707031 178.582031 99.632812 C 178.582031 98.734375 179.199219 97.984375 180.027344 97.761719 Z M 151.992188 83.863281 L 202.878906 84 C 203.945312 84.003906 204.828125 84.871094 204.847656 85.941406 L 205.375 117.179688 C 205.378906 117.398438 205.554688 117.570312 205.769531 117.570312 C 205.773438 117.570312 205.777344 117.570312 205.777344 117.570312 C 205.996094 117.566406 206.171875 117.386719 206.167969 117.167969 L 205.636719 85.925781 C 205.609375 84.433594 204.375 83.210938 202.878906 83.207031 L 151.996094 83.074219 C 151.777344 83.074219 151.601562 83.25 151.601562 83.464844 C 151.597656 83.683594 151.773438 83.863281 151.992188 83.863281 Z M 184.644531 57.613281 C 185.171875 57.566406 185.558594 57.101562 185.511719 56.574219 C 185.464844 56.046875 184.996094 55.660156 184.472656 55.707031 C 183.945312 55.753906 183.558594 56.21875 183.605469 56.746094 C 183.652344 57.273438 184.117188 57.660156 184.644531 57.613281 Z M 191.683594 55.402344 C 191.15625 55.449219 190.769531 55.917969 190.816406 56.441406 C 190.863281 56.96875 191.328125 57.355469 191.855469 57.308594 C 192.382812 57.261719 192.769531 56.796875 192.722656 56.269531 C 192.675781 55.742188 192.210938 55.355469 191.683594 55.402344 Z M 186.488281 64.382812 C 186.242188 64.304688 185.988281 64.238281 185.753906 64.128906 C 185.636719 64.074219 185.503906 64.039062 185.394531 63.964844 L 185.214844 63.875 C 185.160156 63.839844 185.085938 63.828125 184.921875 63.90625 C 184.867188 64.070312 184.90625 64.144531 184.960938 64.195312 L 185.117188 64.359375 C 185.21875 64.476562 185.347656 64.554688 185.472656 64.640625 C 185.71875 64.824219 186.003906 64.925781 186.285156 65.046875 C 186.855469 65.246094 187.453125 65.355469 188.046875 65.339844 C 188.640625 65.335938 189.214844 65.210938 189.773438 65.070312 C 190.058594 65.007812 190.335938 64.9375 190.609375 64.855469 C 190.75 64.8125 190.882812 64.761719 191.015625 64.703125 L 191.210938 64.609375 C 191.277344 64.578125 191.335938 64.519531 191.351562 64.359375 C 191.234375 64.25 191.160156 64.234375 191.089844 64.246094 L 190.886719 64.28125 C 190.75 64.300781 190.617188 64.335938 190.480469 64.359375 C 190.210938 64.417969 189.945312 64.476562 189.671875 64.507812 C 189.128906 64.566406 188.582031 64.574219 188.050781 64.550781 C 187.523438 64.519531 186.996094 64.503906 186.488281 64.382812 Z M 188.488281 62.359375 C 188.570312 62.371094 188.652344 62.382812 188.730469 62.375 C 188.894531 62.367188 189.058594 62.335938 189.226562 62.304688 C 189.554688 62.242188 189.921875 62.109375 190.1875 61.820312 C 190.457031 61.535156 190.570312 61.136719 190.570312 60.792969 C 190.582031 60.617188 190.554688 60.449219 190.53125 60.28125 C 190.507812 60.203125 190.476562 60.125 190.445312 60.050781 L 190.398438 59.9375 C 190.386719 59.898438 190.339844 59.867188 190.175781 59.859375 C 190.023438 59.925781 189.992188 59.96875 189.988281 60.003906 L 189.96875 60.113281 C 189.957031 60.183594 189.949219 60.253906 189.945312 60.324219 C 189.910156 60.453125 189.917969 60.589844 189.878906 60.707031 C 189.828125 60.957031 189.699219 61.132812 189.589844 61.304688 C 189.46875 61.472656 189.292969 61.640625 189.054688 61.757812 C 188.9375 61.808594 188.808594 61.84375 188.675781 61.867188 C 188.609375 61.878906 188.542969 61.894531 188.472656 61.917969 L 188.371094 61.949219 C 188.335938 61.957031 188.304688 61.996094 188.257812 62.136719 C 188.285156 62.28125 188.324219 62.320312 188.367188 62.328125 Z M 192.925781 53.625 L 193.003906 53.628906 C 193.03125 53.628906 193.066406 53.605469 193.15625 53.492188 C 193.203125 53.355469 193.195312 53.308594 193.175781 53.285156 C 193.152344 53.265625 193.132812 53.242188 193.113281 53.222656 C 193.070312 53.183594 193.023438 53.152344 192.976562 53.125 C 192.875 53.078125 192.773438 53.035156 192.671875 52.988281 C 192.46875 52.890625 192.253906 52.792969 192.023438 52.761719 C 191.789062 52.714844 191.546875 52.769531 191.324219 52.835938 C 191.207031 52.871094 191.097656 52.910156 190.996094 52.972656 C 190.941406 53 190.898438 53.039062 190.851562 53.078125 L 190.789062 53.144531 C 190.765625 53.160156 190.753906 53.207031 190.800781 53.363281 C 190.894531 53.496094 190.929688 53.527344 190.953125 53.523438 L 191.03125 53.527344 L 191.175781 53.53125 C 191.265625 53.53125 191.351562 53.519531 191.441406 53.523438 C 191.617188 53.523438 191.785156 53.554688 191.960938 53.546875 C 192.132812 53.546875 192.320312 53.523438 192.511719 53.539062 C 192.601562 53.550781 192.695312 53.574219 192.785156 53.601562 C 192.828125 53.617188 192.878906 53.621094 192.925781 53.625 Z M 185.796875 53.546875 L 185.675781 53.492188 C 185.59375 53.460938 185.511719 53.429688 185.425781 53.40625 C 185.257812 53.359375 185.085938 53.34375 184.914062 53.324219 C 184.566406 53.292969 184.203125 53.285156 183.859375 53.382812 C 183.511719 53.460938 183.183594 53.640625 182.890625 53.835938 C 182.738281 53.929688 182.589844 54.027344 182.453125 54.140625 C 182.386719 54.191406 182.324219 54.257812 182.273438 54.332031 L 182.195312 54.441406 C 182.171875 54.476562 182.164062 54.535156 182.234375 54.664062 C 182.367188 54.734375 182.421875 54.738281 182.457031 54.71875 L 182.5625 54.667969 C 182.628906 54.628906 182.691406 54.589844 182.757812 54.554688 L 182.949219 54.433594 L 183.152344 54.34375 C 183.4375 54.246094 183.726562 54.191406 184.019531 54.152344 C 184.3125 54.117188 184.601562 54.046875 184.90625 54.019531 L 185.367188 53.992188 L 185.601562 53.96875 L 185.722656 53.953125 C 185.761719 53.953125 185.804688 53.921875 185.878906 53.773438 C 185.875 53.609375 185.839844 53.5625 185.796875 53.546875 Z M 150.941406 124.570312 L 196.808594 124.570312 L 196.414062 124.847656 L 195.992188 125.101562 C 195.402344 125.417969 194.773438 125.699219 194.128906 125.957031 C 193.488281 126.214844 192.847656 126.484375 192.199219 126.730469 C 190.910156 127.25 189.605469 127.746094 188.300781 128.238281 C 187.644531 128.476562 186.984375 128.703125 186.324219 128.929688 C 185.992188 129.042969 185.664062 129.15625 185.339844 129.285156 L 184.847656 129.46875 C 184.683594 129.53125 184.53125 129.617188 184.40625 129.808594 C 184.613281 129.894531 184.792969 129.875 184.960938 129.832031 L 185.46875 129.699219 C 185.8125 129.613281 186.144531 129.515625 186.480469 129.414062 L 188.484375 128.78125 C 189.824219 128.375 191.15625 127.941406 192.480469 127.464844 C 193.796875 126.96875 195.09375 126.441406 196.347656 125.703125 L 196.808594 125.390625 L 197.226562 125.074219 C 197.441406 124.910156 197.652344 124.738281 197.859375 124.570312 L 203.945312 124.570312 C 204.789062 124.570312 205.472656 123.886719 205.472656 123.046875 L 205.472656 122.679688 C 205.472656 122.253906 205.296875 121.871094 205.015625 121.59375 C 204.582031 121.828125 204.085938 121.964844 203.5625 121.964844 L 150.804688 121.964844 C 150.425781 121.964844 150.0625 121.890625 149.726562 121.761719 C 149.535156 122.019531 149.417969 122.335938 149.417969 122.679688 L 149.417969 123.046875 C 149.417969 123.886719 150.101562 124.570312 150.941406 124.570312 Z M 163.75 76.097656 C 163.785156 76.226562 163.828125 76.351562 163.875 76.476562 C 163.964844 76.726562 164.058594 76.972656 164.136719 77.222656 C 164.289062 77.730469 164.414062 78.246094 164.558594 78.75 C 164.695312 79.261719 164.878906 79.753906 165.03125 80.257812 C 165.113281 80.507812 165.179688 80.761719 165.265625 81.015625 L 165.394531 81.390625 L 165.464844 81.578125 C 165.484375 81.644531 165.53125 81.699219 165.707031 81.738281 C 165.851562 81.644531 165.875 81.570312 165.871094 81.503906 L 165.867188 81.296875 C 165.863281 81.164062 165.855469 81.023438 165.835938 80.890625 C 165.808594 80.621094 165.761719 80.355469 165.707031 80.089844 C 165.605469 79.558594 165.496094 79.023438 165.308594 78.515625 C 165.132812 78 164.902344 77.507812 164.671875 77.019531 L 164.34375 76.277344 C 164.285156 76.15625 164.226562 76.035156 164.152344 75.921875 L 164.042969 75.75 C 164.003906 75.691406 163.945312 75.644531 163.785156 75.644531 C 163.683594 75.769531 163.679688 75.84375 163.695312 75.90625 Z M 210.203125 113.457031 C 210.132812 113.300781 210.042969 113.152344 209.945312 113.011719 C 209.757812 112.722656 209.546875 112.441406 209.269531 112.230469 C 209 112.011719 208.6875 111.851562 208.378906 111.707031 C 208.226562 111.632812 208.074219 111.558594 207.921875 111.488281 C 207.839844 111.457031 207.757812 111.433594 207.675781 111.414062 C 207.632812 111.40625 207.589844 111.402344 207.546875 111.394531 C 207.503906 111.390625 207.445312 111.410156 207.363281 111.53125 C 207.355469 111.679688 207.375 111.726562 207.40625 111.75 L 207.5 111.824219 C 207.5625 111.867188 207.628906 111.914062 207.695312 111.949219 C 207.828125 112.027344 207.957031 112.105469 208.082031 112.199219 C 208.324219 112.390625 208.535156 112.613281 208.75 112.820312 C 208.953125 113.039062 209.191406 113.21875 209.398438 113.441406 C 209.507812 113.546875 209.597656 113.667969 209.707031 113.777344 L 209.871094 113.945312 L 209.960938 114.03125 C 209.984375 114.058594 210.039062 114.074219 210.199219 114.035156 C 210.324219 113.925781 210.335938 113.871094 210.320312 113.828125 L 210.289062 113.703125 C 210.265625 113.621094 210.242188 113.535156 210.203125 113.457031 Z M 213.335938 147.554688 C 213.207031 146.375 212.753906 145.191406 211.964844 144.277344 C 211.78125 144.039062 211.558594 143.839844 211.347656 143.628906 C 211.117188 143.4375 210.886719 143.246094 210.636719 143.09375 C 210.394531 142.917969 210.128906 142.792969 209.867188 142.664062 C 209.738281 142.59375 209.597656 142.546875 209.464844 142.492188 C 209.332031 142.433594 209.183594 142.40625 208.992188 142.492188 C 209.050781 142.703125 209.160156 142.796875 209.28125 142.863281 C 209.402344 142.933594 209.523438 142.996094 209.632812 143.078125 C 209.859375 143.234375 210.082031 143.390625 210.292969 143.566406 C 210.71875 143.902344 211.105469 144.28125 211.417969 144.710938 C 212.070312 145.558594 212.402344 146.59375 212.554688 147.648438 C 212.699219 148.714844 212.648438 149.824219 212.453125 150.914062 C 212.347656 151.457031 212.199219 151.996094 212.027344 152.523438 C 211.945312 152.789062 211.851562 153.050781 211.761719 153.316406 L 211.625 153.714844 C 211.578125 153.847656 211.554688 153.984375 211.621094 154.175781 C 211.8125 154.113281 211.90625 153.996094 211.976562 153.871094 C 212.042969 153.742188 212.109375 153.617188 212.175781 153.484375 C 212.296875 153.226562 212.410156 152.960938 212.507812 152.691406 C 212.707031 152.152344 212.871094 151.597656 213.011719 151.035156 C 213.292969 149.917969 213.464844 148.742188 213.335938 147.554688 Z M 163.296875 145.734375 L 163.25 145.480469 C 163.230469 145.398438 163.1875 145.3125 163.035156 145.246094 C 162.902344 145.347656 162.871094 145.429688 162.867188 145.511719 L 162.855469 145.761719 C 162.84375 145.929688 162.847656 146.09375 162.839844 146.257812 C 162.832031 146.585938 162.820312 146.917969 162.777344 147.242188 C 162.6875 147.890625 162.53125 148.527344 162.316406 149.125 C 162.097656 149.714844 161.859375 150.292969 161.484375 150.785156 C 161.277344 151.011719 161.078125 151.25 160.824219 151.429688 C 160.703125 151.527344 160.589844 151.640625 160.445312 151.710938 L 160.242188 151.839844 C 160.171875 151.878906 160.113281 151.941406 160.089844 152.132812 C 160.222656 152.25 160.316406 152.25 160.402344 152.21875 L 160.660156 152.144531 C 160.839844 152.101562 160.996094 152.011719 161.152344 151.917969 C 161.484375 151.753906 161.742188 151.488281 162.011719 151.242188 C 162.503906 150.699219 162.867188 150.046875 163.066406 149.363281 C 163.28125 148.679688 163.332031 147.976562 163.347656 147.285156 C 163.359375 146.9375 163.363281 146.59375 163.347656 146.25 C 163.34375 146.078125 163.324219 145.90625 163.296875 145.734375 Z M 210.585938 142.65625 C 210.804688 142.722656 211.035156 142.761719 211.304688 142.679688 C 211.140625 142.453125 210.933594 142.34375 210.714844 142.261719 C 210.496094 142.175781 210.273438 142.105469 210.054688 142.027344 C 209.613281 141.871094 209.160156 141.734375 208.703125 141.628906 C 207.789062 141.402344 206.835938 141.285156 205.878906 141.296875 C 204.921875 141.300781 203.972656 141.445312 203.050781 141.671875 C 202.128906 141.890625 201.25 142.210938 200.375 142.527344 C 199.539062 142.84375 198.65625 143.0625 197.761719 143.261719 C 196.867188 143.46875 195.960938 143.636719 195.054688 143.789062 C 194.144531 143.929688 193.230469 144.050781 192.3125 144.164062 C 191.855469 144.222656 191.398438 144.277344 190.941406 144.34375 L 190.253906 144.433594 C 190.027344 144.46875 189.800781 144.523438 189.582031 144.683594 C 189.824219 144.808594 190.058594 144.824219 190.289062 144.816406 L 190.984375 144.777344 C 191.445312 144.757812 191.910156 144.714844 192.371094 144.671875 C 193.292969 144.585938 194.214844 144.476562 195.136719 144.355469 C 196.976562 144.125 198.828125 143.867188 200.640625 143.265625 C 200.84375 143.195312 201.042969 143.128906 201.242188 143.058594 C 201.230469 143.078125 201.21875 143.097656 201.210938 143.117188 L 201.039062 143.496094 C 200.933594 143.75 200.835938 144.011719 200.753906 144.277344 C 200.585938 144.800781 200.449219 145.339844 200.324219 145.878906 C 200.074219 146.957031 199.902344 148.078125 199.953125 149.210938 C 199.992188 150.339844 200.285156 151.484375 200.839844 152.496094 C 201.121094 152.996094 201.46875 153.460938 201.878906 153.863281 C 202.085938 154.0625 202.304688 154.246094 202.542969 154.402344 C 202.65625 154.484375 202.773438 154.566406 202.898438 154.632812 C 203.015625 154.707031 203.15625 154.757812 203.355469 154.695312 C 203.328125 154.480469 203.242188 154.378906 203.136719 154.296875 C 203.03125 154.21875 202.9375 154.128906 202.84375 154.035156 C 202.648438 153.855469 202.480469 153.65625 202.304688 153.464844 C 201.976562 153.0625 201.683594 152.636719 201.457031 152.171875 C 201.015625 151.238281 200.808594 150.210938 200.738281 149.167969 C 200.664062 148.121094 200.71875 147.050781 200.886719 145.992188 C 200.976562 145.460938 201.101562 144.9375 201.242188 144.421875 L 201.457031 143.640625 L 201.566406 143.253906 C 201.59375 143.15625 201.609375 143.058594 201.582031 142.941406 C 203.003906 142.460938 204.429688 142.046875 205.898438 141.992188 C 206.789062 141.953125 207.6875 142.042969 208.582031 142.199219 C 209.027344 142.285156 209.476562 142.367188 209.921875 142.484375 C 210.140625 142.539062 210.367188 142.585938 210.585938 142.65625 Z M 176.492188 149.707031 C 176.324219 149.664062 176.15625 149.625 175.988281 149.566406 C 175.65625 149.453125 175.324219 149.359375 174.992188 149.242188 C 174.332031 149.011719 173.671875 148.773438 173.011719 148.527344 C 171.703125 148.015625 170.402344 147.464844 169.09375 146.941406 L 165.167969 145.351562 C 164.515625 145.074219 163.871094 144.785156 163.226562 144.5 C 162.902344 144.355469 162.578125 144.214844 162.25 144.085938 L 161.757812 143.882812 C 161.59375 143.816406 161.417969 143.773438 161.195312 143.828125 C 161.296875 144.035156 161.4375 144.144531 161.59375 144.226562 L 162.0625 144.480469 C 162.375 144.652344 162.691406 144.804688 163.011719 144.960938 L 164.933594 145.875 C 166.207031 146.496094 167.492188 147.09375 168.789062 147.667969 C 170.09375 148.226562 171.429688 148.722656 172.777344 149.179688 C 173.453125 149.402344 174.132812 149.625 174.828125 149.800781 C 175.167969 149.902344 175.53125 149.953125 175.878906 150.03125 C 176.050781 150.070312 176.234375 150.089844 176.414062 150.113281 C 176.59375 150.136719 176.78125 150.132812 176.976562 150.003906 C 176.820312 149.808594 176.660156 149.742188 176.492188 149.707031 Z M 189.867188 135.957031 C 190.417969 137.171875 191.007812 138.371094 191.664062 139.539062 C 191.988281 140.125 192.320312 140.710938 192.6875 141.273438 C 192.882812 141.550781 193.074219 141.832031 193.308594 142.085938 C 193.410156 142.21875 193.546875 142.335938 193.664062 142.460938 C 193.78125 142.582031 193.96875 142.664062 194.171875 142.660156 C 194.132812 142.429688 194.035156 142.324219 193.9375 142.195312 C 193.84375 142.066406 193.734375 141.953125 193.648438 141.8125 C 193.464844 141.550781 193.292969 141.273438 193.117188 141 C 192.78125 140.441406 192.460938 139.867188 192.171875 139.273438 C 191.605469 138.085938 191.089844 136.871094 190.589844 135.644531 L 189.824219 133.816406 L 189.726562 133.589844 C 189.703125 133.527344 189.679688 133.46875 189.664062 133.40625 C 189.632812 133.28125 189.617188 133.152344 189.621094 133.023438 C 189.628906 132.765625 189.714844 132.507812 189.871094 132.292969 C 189.953125 132.179688 190.027344 132.105469 190.15625 131.996094 L 190.539062 131.675781 C 190.796875 131.464844 191.042969 131.246094 191.296875 131.027344 C 191.550781 130.816406 191.792969 130.585938 192.039062 130.363281 L 192.410156 130.03125 C 192.535156 129.921875 192.640625 129.789062 192.667969 129.558594 C 192.4375 129.535156 192.285156 129.609375 192.152344 129.707031 L 191.742188 129.992188 C 191.472656 130.183594 191.195312 130.375 190.929688 130.574219 C 190.664062 130.769531 190.394531 130.964844 190.132812 131.167969 L 189.738281 131.472656 C 189.605469 131.566406 189.433594 131.714844 189.316406 131.871094 C 189.066406 132.183594 188.914062 132.574219 188.882812 132.980469 C 188.871094 133.128906 188.882812 133.285156 188.902344 133.433594 C 188.804688 133.515625 188.710938 133.597656 188.609375 133.671875 C 188.402344 133.824219 188.191406 133.972656 187.992188 134.128906 C 187.574219 134.425781 187.167969 134.738281 186.742188 135.03125 L 184.1875 136.769531 L 181.644531 138.542969 C 181.214844 138.832031 180.78125 139.105469 180.34375 139.386719 C 180.128906 139.527344 179.910156 139.667969 179.699219 139.816406 L 179.382812 140.042969 C 179.28125 140.117188 179.195312 140.210938 179.152344 140.382812 C 178.535156 140.050781 177.917969 139.714844 177.304688 139.375 C 175.609375 138.453125 173.933594 137.496094 172.292969 136.480469 C 171.886719 136.21875 171.476562 135.964844 171.074219 135.695312 L 169.875 134.890625 L 168.675781 134.078125 L 168.074219 133.671875 C 167.949219 133.589844 167.8125 133.511719 167.660156 133.460938 C 167.730469 133.347656 167.800781 133.230469 167.863281 133.089844 L 167.941406 132.914062 L 167.984375 132.828125 C 167.992188 132.789062 168.003906 132.738281 168.007812 132.695312 C 168.035156 132.503906 167.984375 132.347656 167.929688 132.214844 C 167.8125 131.957031 167.652344 131.773438 167.488281 131.59375 C 167.328125 131.417969 167.152344 131.265625 166.976562 131.117188 C 166.269531 130.527344 165.511719 130.042969 164.738281 129.582031 C 164.351562 129.351562 163.953125 129.140625 163.558594 128.933594 C 163.15625 128.734375 162.785156 128.476562 162.28125 128.472656 C 162.570312 128.878906 162.980469 129.050781 163.355469 129.292969 L 164.480469 130 C 165.226562 130.476562 165.964844 130.96875 166.621094 131.53125 C 166.9375 131.808594 167.265625 132.128906 167.40625 132.441406 C 167.429688 132.511719 167.445312 132.578125 167.433594 132.613281 C 167.429688 132.621094 167.433594 132.625 167.429688 132.640625 L 167.394531 132.703125 L 167.328125 132.832031 C 167.246094 133 167.105469 133.191406 167 133.371094 C 166.511719 134.105469 165.984375 134.820312 165.460938 135.539062 L 162.269531 139.820312 L 159.253906 143.90625 C 158.914062 143.746094 158.570312 143.574219 158.234375 143.398438 C 157.8125 143.179688 157.398438 142.949219 156.996094 142.707031 C 156.589844 142.464844 156.1875 142.214844 155.804688 141.941406 C 155.496094 141.734375 155.253906 141.476562 154.917969 141.292969 L 154.894531 141.261719 L 154.757812 141.074219 C 154.703125 141.019531 154.640625 140.96875 154.585938 140.917969 C 154.464844 140.820312 154.355469 140.703125 154.21875 140.625 L 153.800781 140.394531 C 153.222656 140.140625 152.574219 140.027344 151.960938 140.101562 C 151.339844 140.164062 150.773438 140.386719 150.234375 140.632812 C 149.964844 140.75 149.699219 140.878906 149.441406 141.023438 C 149.3125 141.09375 149.191406 141.175781 149.070312 141.261719 L 148.898438 141.398438 C 148.84375 141.449219 148.800781 141.519531 148.820312 141.679688 C 148.960938 141.757812 149.039062 141.753906 149.101562 141.726562 L 149.296875 141.644531 C 149.425781 141.59375 149.546875 141.53125 149.675781 141.476562 C 149.925781 141.359375 150.179688 141.246094 150.441406 141.164062 C 150.96875 141.007812 151.507812 140.910156 152.027344 140.886719 C 152.3125 140.878906 152.59375 140.878906 152.871094 140.90625 C 152.863281 140.910156 152.851562 140.910156 152.84375 140.914062 L 152.445312 141.03125 C 152.316406 141.082031 152.191406 141.140625 152.0625 141.195312 C 151.554688 141.429688 151.074219 141.738281 150.667969 142.136719 C 150.257812 142.527344 149.90625 142.976562 149.625 143.46875 C 149.34375 143.960938 149.164062 144.496094 149.019531 145.035156 C 148.75 146.117188 148.746094 147.222656 148.828125 148.296875 C 148.871094 148.835938 148.929688 149.375 149.019531 149.90625 C 149.066406 150.167969 149.125 150.433594 149.195312 150.691406 L 149.308594 151.082031 C 149.351562 151.207031 149.417969 151.332031 149.59375 151.421875 C 149.695312 151.257812 149.703125 151.125 149.679688 150.992188 L 149.628906 150.605469 L 149.523438 149.828125 C 149.457031 149.3125 149.410156 148.792969 149.402344 148.273438 C 149.394531 147.234375 149.511719 146.203125 149.785156 145.234375 C 150.046875 144.265625 150.476562 143.347656 151.160156 142.628906 C 151.492188 142.261719 151.902344 141.976562 152.332031 141.714844 L 152.660156 141.527344 L 153.003906 141.363281 C 153.117188 141.300781 153.238281 141.253906 153.359375 141.210938 C 153.441406 141.1875 153.515625 141.140625 153.585938 141.0625 L 153.894531 141.1875 C 154.007812 141.242188 154.113281 141.316406 154.226562 141.382812 C 154.285156 141.414062 154.339844 141.449219 154.398438 141.480469 L 154.554688 141.601562 L 154.71875 141.726562 C 154.761719 141.761719 154.820312 141.78125 154.9375 141.757812 C 155.117188 141.957031 155.332031 142.121094 155.527344 142.300781 C 155.902344 142.613281 156.292969 142.902344 156.695312 143.179688 C 157.503906 143.71875 158.339844 144.203125 159.21875 144.632812 C 159.355469 144.699219 159.523438 144.664062 159.617188 144.539062 L 159.625 144.53125 C 160.730469 143.128906 161.824219 141.71875 162.90625 140.296875 C 163.980469 138.871094 165.023438 137.421875 166.039062 135.953125 C 166.546875 135.214844 167.042969 134.472656 167.519531 133.703125 C 167.527344 133.691406 167.53125 133.679688 167.539062 133.671875 C 167.628906 133.789062 167.734375 133.886719 167.847656 133.976562 L 168.417969 134.429688 C 168.796875 134.738281 169.183594 135.03125 169.582031 135.308594 C 170.371094 135.871094 171.167969 136.429688 171.984375 136.957031 C 172.78125 137.515625 173.605469 138.03125 174.417969 138.5625 C 175.25 139.066406 176.074219 139.582031 176.917969 140.0625 C 178.605469 141.03125 180.347656 141.902344 182.109375 142.71875 C 182.992188 143.128906 183.878906 143.527344 184.777344 143.894531 C 185.226562 144.078125 185.679688 144.253906 186.136719 144.421875 L 186.824219 144.671875 C 187.050781 144.753906 187.292969 144.8125 187.578125 144.746094 C 187.410156 144.507812 187.199219 144.386719 186.980469 144.289062 L 186.320312 143.984375 L 185.015625 143.359375 C 184.144531 142.9375 183.273438 142.527344 182.414062 142.09375 C 181.339844 141.550781 180.277344 140.992188 179.222656 140.421875 C 179.367188 140.449219 179.480469 140.421875 179.578125 140.371094 L 179.925781 140.199219 C 180.160156 140.078125 180.386719 139.953125 180.609375 139.820312 L 181.953125 139.027344 C 182.851562 138.511719 183.753906 137.992188 184.628906 137.421875 C 185.503906 136.859375 186.339844 136.238281 187.160156 135.589844 C 187.570312 135.265625 187.976562 134.933594 188.363281 134.582031 C 188.558594 134.402344 188.742188 134.210938 188.925781 134.027344 C 188.960938 133.988281 188.996094 133.953125 189.027344 133.914062 L 189.101562 134.109375 C 189.335938 134.734375 189.601562 135.34375 189.867188 135.957031 Z M 175.226562 133.617188 C 174.949219 133.398438 174.660156 133.191406 174.375 132.988281 L 172.648438 131.761719 C 171.515625 130.925781 170.375 130.09375 169.226562 129.273438 C 168.074219 128.460938 166.894531 127.6875 165.714844 126.914062 C 165.125 126.527344 164.539062 126.132812 163.941406 125.757812 C 163.644531 125.566406 163.339844 125.386719 163.039062 125.203125 L 162.585938 124.929688 C 162.433594 124.835938 162.269531 124.765625 162.03125 124.800781 C 162.085938 125.035156 162.210938 125.164062 162.351562 125.269531 L 162.769531 125.597656 C 163.046875 125.8125 163.324219 126.03125 163.609375 126.242188 C 164.171875 126.664062 164.746094 127.074219 165.320312 127.484375 C 166.464844 128.3125 167.605469 129.136719 168.777344 129.921875 C 169.957031 130.703125 171.136719 131.472656 172.324219 132.234375 L 174.085938 133.40625 C 174.378906 133.601562 174.675781 133.796875 174.980469 133.976562 L 175.429688 134.253906 C 175.582031 134.347656 175.746094 134.414062 175.972656 134.398438 C 175.910156 134.179688 175.785156 134.046875 175.644531 133.941406 Z M 207.113281 93.046875 C 207.28125 92.953125 207.324219 92.867188 207.339844 92.777344 L 207.394531 92.503906 C 207.429688 92.324219 207.488281 92.148438 207.527344 91.96875 C 207.5625 91.789062 207.628906 91.613281 207.675781 91.433594 C 207.726562 91.257812 207.773438 91.082031 207.839844 90.90625 C 208.066406 90.203125 208.382812 89.527344 208.652344 88.832031 C 208.933594 88.140625 209.21875 87.445312 209.539062 86.761719 C 209.703125 86.421875 209.882812 86.09375 210.0625 85.761719 C 210.148438 85.59375 210.238281 85.429688 210.320312 85.257812 L 210.441406 85 C 210.480469 84.914062 210.5 84.816406 210.429688 84.660156 C 210.257812 84.660156 210.175781 84.722656 210.117188 84.800781 L 209.941406 85.027344 C 209.828125 85.183594 209.71875 85.34375 209.621094 85.503906 C 209.417969 85.832031 209.226562 86.160156 209.035156 86.492188 C 208.640625 87.148438 208.25 87.8125 207.929688 88.515625 C 207.605469 89.21875 207.355469 89.953125 207.167969 90.710938 C 207.117188 90.898438 207.082031 91.09375 207.042969 91.28125 C 207 91.472656 206.964844 91.664062 206.953125 91.863281 C 206.933594 92.058594 206.910156 92.253906 206.914062 92.453125 L 206.925781 92.75 C 206.925781 92.847656 206.957031 92.949219 207.113281 93.046875 Z M 180.222656 72.367188 C 180.113281 72.109375 180.011719 71.847656 179.917969 71.585938 C 179.820312 71.320312 179.710938 71.066406 179.5 70.824219 C 179.421875 71.140625 179.472656 71.425781 179.550781 71.703125 C 179.632812 71.980469 179.71875 72.253906 179.8125 72.523438 C 179.996094 73.070312 180.222656 73.597656 180.46875 74.117188 C 180.972656 75.152344 181.574219 76.144531 182.277344 77.0625 C 182.976562 77.980469 183.78125 78.832031 184.695312 79.554688 C 185.605469 80.285156 186.628906 80.878906 187.710938 81.324219 L 187.722656 81.328125 C 187.8125 81.367188 187.921875 81.367188 188.015625 81.320312 C 189.007812 80.835938 189.835938 80.226562 190.617188 79.523438 C 191.394531 78.824219 192.085938 78.042969 192.710938 77.214844 C 193.328125 76.382812 193.878906 75.503906 194.335938 74.578125 C 194.574219 74.117188 194.765625 73.640625 194.957031 73.164062 C 195.054688 72.925781 195.136719 72.679688 195.226562 72.441406 C 195.3125 72.199219 195.363281 71.941406 195.304688 71.652344 C 195.066406 71.835938 194.945312 72.058594 194.84375 72.289062 C 194.738281 72.519531 194.640625 72.75 194.527344 72.976562 C 194.308594 73.425781 194.070312 73.871094 193.824219 74.304688 C 193.332031 75.179688 192.777344 76.011719 192.164062 76.792969 C 191.542969 77.574219 190.859375 78.300781 190.105469 78.945312 C 189.734375 79.269531 189.339844 79.566406 188.9375 79.851562 C 188.585938 80.097656 188.207031 80.335938 187.84375 80.519531 C 186.882812 80.121094 185.960938 79.628906 185.128906 78.992188 C 184.242188 78.335938 183.4375 77.5625 182.734375 76.699219 C 182.03125 75.835938 181.441406 74.882812 180.929688 73.890625 C 180.671875 73.394531 180.445312 72.882812 180.222656 72.367188 Z M 183.335938 68.527344 L 183.632812 68.675781 L 184.230469 68.964844 C 184.628906 69.148438 185.027344 69.332031 185.433594 69.492188 C 186.25 69.800781 187.089844 70.027344 187.921875 70.105469 C 188.335938 70.148438 188.753906 70.144531 189.152344 70.074219 C 189.5625 70 190 69.886719 190.410156 69.75 C 190.820312 69.609375 191.214844 69.429688 191.578125 69.207031 C 191.761719 69.097656 191.929688 68.976562 192.097656 68.847656 C 192.179688 68.785156 192.261719 68.71875 192.335938 68.644531 C 192.40625 68.570312 192.488281 68.523438 192.667969 68.488281 C 192.75 68.65625 192.699219 68.792969 192.628906 68.890625 C 192.558594 68.988281 192.484375 69.085938 192.402344 69.175781 C 192.238281 69.351562 192.050781 69.5 191.855469 69.636719 C 191.464844 69.902344 191.042969 70.105469 190.617188 70.289062 C 190.191406 70.480469 189.769531 70.636719 189.304688 70.765625 C 188.828125 70.894531 188.335938 70.921875 187.859375 70.894531 C 186.894531 70.832031 186 70.511719 185.164062 70.128906 C 184.742188 69.933594 184.335938 69.71875 183.949219 69.472656 C 183.753906 69.355469 183.566406 69.21875 183.382812 69.082031 L 183.109375 68.871094 C 183.019531 68.804688 182.941406 68.707031 182.945312 68.511719 C 183.128906 68.445312 183.238281 68.472656 183.335938 68.527344 " fill-opacity="1" fill-rule="nonzero"/><path fill="#e3386a" d="M 224.589844 93.679688 C 224.058594 93.828125 223.554688 93.992188 223.175781 93.863281 C 222.789062 93.75 222.417969 93.375 222.082031 92.984375 C 221.898438 92.765625 221.703125 92.539062 221.464844 92.339844 C 221.234375 92.140625 220.964844 91.945312 220.605469 91.84375 C 220.25 91.738281 219.835938 91.804688 219.53125 91.957031 C 219.21875 92.105469 218.980469 92.304688 218.761719 92.503906 C 218.652344 92.605469 218.550781 92.707031 218.453125 92.808594 C 218.375 92.871094 218.316406 92.933594 218.246094 92.957031 C 218.121094 93.015625 217.964844 93.011719 217.761719 92.925781 C 217.566406 92.84375 217.355469 92.710938 217.152344 92.558594 C 216.941406 92.402344 216.796875 92.195312 216.410156 92.140625 C 216.335938 92.535156 216.550781 92.75 216.730469 92.984375 C 216.917969 93.214844 217.140625 93.4375 217.441406 93.597656 C 217.726562 93.757812 218.167969 93.851562 218.550781 93.683594 C 218.746094 93.605469 218.886719 93.476562 219.019531 93.359375 C 219.113281 93.265625 219.207031 93.167969 219.300781 93.082031 C 219.484375 92.910156 219.679688 92.757812 219.867188 92.667969 C 220.058594 92.578125 220.222656 92.554688 220.402344 92.601562 C 220.578125 92.648438 220.777344 92.773438 220.957031 92.933594 C 221.144531 93.089844 221.308594 93.28125 221.484375 93.484375 C 221.859375 93.910156 222.285156 94.394531 222.976562 94.589844 C 223.320312 94.679688 223.671875 94.648438 223.96875 94.582031 C 224.269531 94.515625 224.535156 94.421875 224.796875 94.328125 L 225.183594 94.191406 C 225.304688 94.160156 225.414062 94.117188 225.535156 94.101562 C 225.773438 94.054688 226.019531 94.054688 226.261719 94.089844 C 226.757812 94.171875 227.210938 94.367188 227.796875 94.503906 C 227.226562 93.390625 225.621094 93.273438 224.589844 93.679688 Z M 216.890625 76.761719 C 217.183594 76.8125 217.492188 76.84375 217.828125 76.769531 C 218.152344 76.707031 218.546875 76.496094 218.730469 76.117188 C 218.828125 75.933594 218.851562 75.742188 218.875 75.566406 C 218.886719 75.433594 218.894531 75.300781 218.910156 75.175781 C 218.941406 74.921875 218.988281 74.679688 219.074219 74.488281 C 219.160156 74.296875 219.269531 74.175781 219.4375 74.09375 C 219.605469 74.015625 219.835938 73.984375 220.078125 73.988281 C 220.320312 73.984375 220.570312 74.023438 220.835938 74.0625 C 221.398438 74.148438 222.035156 74.238281 222.6875 73.941406 C 223.007812 73.789062 223.257812 73.539062 223.441406 73.296875 C 223.625 73.050781 223.769531 72.804688 223.90625 72.566406 L 224.113281 72.210938 C 224.1875 72.109375 224.238281 72.003906 224.324219 71.914062 C 224.472656 71.726562 224.660156 71.566406 224.871094 71.433594 C 225.300781 71.175781 225.773438 71.03125 226.304688 70.757812 C 225.152344 70.277344 223.851562 71.226562 223.328125 72.203125 C 223.019531 72.664062 222.742188 73.113281 222.371094 73.261719 C 222.003906 73.421875 221.480469 73.378906 220.96875 73.296875 C 220.6875 73.253906 220.390625 73.203125 220.082031 73.207031 C 219.773438 73.203125 219.441406 73.230469 219.105469 73.382812 C 218.765625 73.535156 218.488281 73.851562 218.355469 74.164062 C 218.21875 74.480469 218.164062 74.789062 218.125 75.082031 C 218.109375 75.226562 218.097656 75.371094 218.089844 75.515625 C 218.070312 75.613281 218.0625 75.699219 218.027344 75.761719 C 217.96875 75.886719 217.847656 75.984375 217.640625 76.050781 C 217.4375 76.113281 217.1875 76.152344 216.933594 76.164062 C 216.671875 76.183594 216.429688 76.121094 216.097656 76.328125 C 216.296875 76.675781 216.601562 76.699219 216.890625 76.761719 Z M 140.660156 88.929688 L 141.054688 88.816406 C 141.179688 88.792969 141.289062 88.753906 141.414062 88.746094 C 141.652344 88.714844 141.898438 88.726562 142.140625 88.78125 C 142.628906 88.890625 143.070312 89.113281 143.644531 89.285156 C 143.144531 88.140625 141.546875 87.921875 140.492188 88.265625 C 139.953125 88.382812 139.441406 88.515625 139.070312 88.367188 C 138.695312 88.226562 138.347656 87.832031 138.035156 87.417969 C 137.863281 87.195312 137.683594 86.953125 137.457031 86.738281 C 137.238281 86.523438 136.980469 86.3125 136.632812 86.191406 C 136.28125 86.066406 135.863281 86.105469 135.550781 86.238281 C 135.230469 86.367188 134.980469 86.554688 134.75 86.738281 C 134.632812 86.832031 134.527344 86.925781 134.421875 87.023438 C 134.339844 87.082031 134.277344 87.140625 134.207031 87.160156 C 134.078125 87.207031 133.921875 87.195312 133.726562 87.097656 C 133.535156 87.003906 133.332031 86.859375 133.136719 86.691406 C 132.9375 86.523438 132.808594 86.3125 132.421875 86.230469 C 132.324219 86.617188 132.527344 86.847656 132.691406 87.09375 C 132.867188 87.332031 133.074219 87.570312 133.363281 87.75 C 133.640625 87.925781 134.074219 88.046875 134.46875 87.902344 C 134.664062 87.835938 134.816406 87.71875 134.953125 87.605469 C 135.054688 87.519531 135.152344 87.429688 135.25 87.351562 C 135.445312 87.1875 135.648438 87.046875 135.84375 86.96875 C 136.039062 86.890625 136.203125 86.875 136.378906 86.933594 C 136.554688 86.992188 136.742188 87.128906 136.914062 87.300781 C 137.089844 87.46875 137.246094 87.667969 137.410156 87.882812 C 137.757812 88.332031 138.152344 88.839844 138.832031 89.078125 C 139.164062 89.1875 139.519531 89.179688 139.816406 89.132812 C 140.121094 89.082031 140.394531 89.003906 140.660156 88.929688 Z M 142.058594 69.90625 C 142.238281 70.007812 142.429688 70.035156 142.605469 70.0625 C 142.734375 70.078125 142.867188 70.085938 142.992188 70.105469 C 143.246094 70.140625 143.488281 70.195312 143.675781 70.285156 C 143.867188 70.375 143.988281 70.488281 144.0625 70.652344 C 144.140625 70.824219 144.167969 71.054688 144.15625 71.296875 C 144.15625 71.539062 144.113281 71.789062 144.066406 72.054688 C 143.96875 72.617188 143.863281 73.25 144.152344 73.90625 C 144.292969 74.230469 144.539062 74.484375 144.78125 74.671875 C 145.019531 74.863281 145.261719 75.011719 145.5 75.152344 L 145.847656 75.367188 C 145.953125 75.441406 146.054688 75.496094 146.140625 75.582031 C 146.328125 75.738281 146.484375 75.925781 146.609375 76.140625 C 146.859375 76.574219 146.996094 77.050781 147.257812 77.589844 C 147.761719 76.445312 146.839844 75.125 145.871094 74.582031 C 145.421875 74.265625 144.976562 73.980469 144.835938 73.605469 C 144.683594 73.234375 144.734375 72.710938 144.832031 72.199219 C 144.878906 71.921875 144.933594 71.625 144.9375 71.316406 C 144.949219 71.011719 144.929688 70.675781 144.78125 70.335938 C 144.636719 69.992188 144.324219 69.710938 144.015625 69.574219 C 143.703125 69.425781 143.398438 69.367188 143.105469 69.324219 C 142.957031 69.304688 142.8125 69.289062 142.671875 69.277344 C 142.574219 69.257812 142.488281 69.25 142.425781 69.210938 C 142.304688 69.148438 142.207031 69.027344 142.144531 68.816406 C 142.085938 68.613281 142.054688 68.367188 142.046875 68.109375 C 142.03125 67.847656 142.101562 67.605469 141.902344 67.269531 C 141.550781 67.460938 141.515625 67.765625 141.449219 68.050781 C 141.390625 68.34375 141.355469 68.65625 141.421875 68.988281 C 141.476562 69.3125 141.683594 69.714844 142.058594 69.90625 Z M 219.195312 114.339844 C 219.175781 114.121094 218.988281 113.957031 218.769531 113.972656 C 218.449219 114 210.925781 114.597656 206.609375 117.839844 L 206.609375 118.835938 C 206.765625 118.714844 206.902344 118.609375 207.019531 118.519531 C 211.132812 115.378906 218.753906 114.769531 218.828125 114.761719 C 219.046875 114.746094 219.210938 114.554688 219.195312 114.339844 Z M 226.03125 129.898438 C 225.851562 129.773438 225.605469 129.824219 225.484375 130.003906 C 222.492188 134.449219 211.398438 139.660156 211.285156 139.714844 C 211.085938 139.804688 211.003906 140.042969 211.09375 140.238281 C 211.160156 140.382812 211.304688 140.46875 211.453125 140.46875 C 211.507812 140.46875 211.566406 140.457031 211.621094 140.429688 C 212.085938 140.214844 223.023438 135.074219 226.140625 130.445312 C 226.261719 130.265625 226.214844 130.019531 226.03125 129.898438 Z M 147.757812 116.410156 C 142.746094 113.441406 140.359375 113.15625 140.199219 113.140625 C 139.980469 113.121094 139.789062 113.277344 139.765625 113.492188 C 139.746094 113.710938 139.902344 113.90625 140.121094 113.925781 C 140.15625 113.929688 142.128906 114.179688 146.269531 116.488281 C 143.640625 116.148438 140.941406 116.382812 140.792969 116.394531 C 140.574219 116.414062 140.414062 116.605469 140.433594 116.824219 C 140.453125 117.042969 140.644531 117.199219 140.863281 117.183594 C 140.90625 117.179688 144.875 116.835938 147.757812 117.566406 Z M 190.933594 126.363281 C 184.40625 128.15625 165.9375 126.015625 165.75 125.992188 C 165.535156 125.964844 165.339844 126.125 165.3125 126.339844 C 165.285156 126.554688 165.441406 126.753906 165.660156 126.777344 C 166.191406 126.839844 175.121094 127.875 182.742188 127.875 C 186.054688 127.875 189.121094 127.679688 191.144531 127.125 C 191.351562 127.066406 191.476562 126.847656 191.417969 126.636719 C 191.363281 126.429688 191.144531 126.304688 190.933594 126.363281 Z M 201.664062 140.167969 C 200.0625 139.03125 195.21875 131.90625 193.773438 129.746094 C 193.542969 129.40625 193.617188 128.945312 193.941406 128.695312 C 195.429688 127.53125 197.332031 126.050781 199.230469 124.570312 L 197.945312 124.570312 C 196.316406 125.835938 194.734375 127.070312 193.453125 128.074219 C 192.808594 128.578125 192.65625 129.503906 193.113281 130.1875 C 194.992188 132.988281 199.542969 139.632812 201.207031 140.8125 C 201.277344 140.859375 201.355469 140.882812 201.433594 140.882812 C 201.558594 140.882812 201.679688 140.828125 201.757812 140.71875 C 201.882812 140.539062 201.839844 140.292969 201.664062 140.167969 Z M 161.929688 129.285156 L 155.605469 139.445312 C 155.550781 139.53125 155.46875 139.59375 155.371094 139.621094 C 155.28125 139.644531 154.269531 139.898438 152.613281 139.898438 C 150.578125 139.898438 147.566406 139.511719 144.078125 137.839844 C 143.882812 137.746094 143.800781 137.511719 143.894531 137.3125 C 143.988281 137.117188 144.226562 137.035156 144.421875 137.128906 C 149.859375 139.738281 154.179688 139.058594 155.023438 138.886719 L 161.257812 128.867188 C 161.558594 128.386719 161.464844 127.769531 161.039062 127.394531 C 159.882812 126.378906 158.78125 125.441406 157.726562 124.570312 L 158.96875 124.570312 C 159.804688 125.269531 160.667969 126.015625 161.5625 126.804688 C 162.277344 127.433594 162.433594 128.476562 161.929688 129.285156 " fill-opacity="1" fill-rule="nonzero"/><g fill="#000000" fill-opacity="1"><g transform="translate(123.186469, 189.96138)"><g><path d="M 6.589844 -5.5 C 6.589844 -6.285156 6.316406 -6.863281 5.734375 -7.230469 C 5.164062 -7.597656 4.503906 -7.777344 3.722656 -7.777344 C 2.960938 -7.777344 2.289062 -7.597656 1.699219 -7.230469 C 1.117188 -6.863281 0.824219 -6.285156 0.824219 -5.5 L 0.824219 -0.589844 C 0.824219 0.191406 1.117188 0.773438 1.699219 1.148438 C 2.289062 1.523438 2.960938 1.707031 3.722656 1.707031 C 4.503906 1.707031 5.164062 1.523438 5.734375 1.148438 C 6.316406 0.773438 6.589844 0.191406 6.589844 -0.589844 Z M 4.230469 -0.652344 C 4.230469 -0.113281 4.015625 0.101562 3.722656 0.101562 C 3.40625 0.101562 3.191406 -0.132812 3.191406 -0.652344 L 3.191406 -5.296875 C 3.191406 -5.816406 3.40625 -6.050781 3.722656 -6.050781 C 4.015625 -6.050781 4.230469 -5.855469 4.230469 -5.296875 Z M 9.589844 1.679688 L 9.589844 -7.65625 L 7.238281 -7.65625 L 7.238281 1.679688 Z M 9.589844 1.679688 "/></g></g></g><g fill="#000000" fill-opacity="1"><g transform="translate(133.721397, 189.96138)"><g><path d="M 5.175781 -0.132812 C 4.472656 -0.417969 3.964844 -1.25 3.964844 -2.96875 L 3.964844 -6.050781 L 5.136719 -6.050781 L 5.136719 -7.636719 L 0.425781 -7.636719 L 0.425781 -6.050781 L 1.789062 -6.050781 L 1.789062 -2.96875 C 1.789062 -1.992188 1.636719 -1.28125 1.300781 -0.832031 C 0.988281 -0.398438 0.609375 -0.132812 0.203125 -0.0625 L 0.203125 1.648438 C 0.671875 1.636719 1.199219 1.472656 1.757812 1.148438 C 2.328125 0.824219 2.703125 0.46875 2.878906 0.0820312 C 3.050781 0.4375 3.355469 0.761719 3.804688 1.058594 C 4.261719 1.363281 4.726562 1.554688 5.175781 1.628906 Z M 7.597656 1.679688 L 7.597656 -7.65625 L 5.472656 -7.65625 L 5.472656 -4.515625 L 4.300781 -4.515625 L 4.300781 -2.828125 L 5.472656 -2.828125 L 5.472656 1.679688 Z M 10.058594 1.679688 L 10.058594 -7.65625 L 7.902344 -7.65625 L 7.902344 1.679688 Z M 10.058594 1.679688 "/></g></g></g><g fill="#000000" fill-opacity="1"><g transform="translate(144.256326, 189.96138)"><g/></g></g><g fill="#000000" fill-opacity="1"><g transform="translate(147.235795, 189.96138)"><g><path d="M 6.394531 -5.652344 C 6.394531 -6.4375 6.101562 -6.996094 5.480469 -7.34375 C 4.882812 -7.699219 4.148438 -7.871094 3.335938 -7.871094 C 2.5 -7.871094 1.78125 -7.699219 1.160156 -7.34375 C 0.550781 -6.996094 0.234375 -6.4375 0.234375 -5.652344 L 0.234375 -5.316406 C 0.234375 -4.535156 0.550781 -3.964844 1.160156 -3.609375 C 1.78125 -3.253906 2.5 -3.082031 3.335938 -3.082031 C 4.148438 -3.082031 4.882812 -3.253906 5.480469 -3.609375 C 6.101562 -3.964844 6.394531 -4.535156 6.394531 -5.316406 Z M 3.925781 -5.390625 C 3.925781 -4.851562 3.691406 -4.6875 3.335938 -4.6875 C 2.949219 -4.6875 2.703125 -4.871094 2.703125 -5.390625 L 2.703125 -5.441406 C 2.703125 -5.957031 2.949219 -6.140625 3.335938 -6.140625 C 3.691406 -6.140625 3.925781 -6 3.925781 -5.441406 Z M 10.617188 -4.472656 L 10.617188 -6.253906 L 9.140625 -6.253906 L 9.140625 -7.667969 L 6.773438 -7.667969 L 6.773438 -3.152344 L 9.140625 -3.152344 L 9.140625 -4.472656 Z M 9.234375 1.6875 L 9.234375 0.316406 L 3.070312 0.316406 L 3.070312 0.0390625 L 9.152344 0.0390625 L 9.152344 -2.886719 L 0.679688 -2.886719 L 0.679688 -1.523438 L 6.773438 -1.523438 L 6.773438 -1.261719 L 0.703125 -1.261719 L 0.703125 1.6875 Z M 9.234375 1.6875 "/></g></g></g><g fill="#000000" fill-opacity="1"><g transform="translate(157.770723, 189.96138)"><g><path d="M 9.914062 -5.847656 C 9.457031 -5.917969 9.070312 -6.101562 8.785156 -6.375 C 8.5 -6.660156 8.359375 -6.984375 8.359375 -7.363281 L 8.359375 -7.699219 L 6.0625 -7.699219 L 6.0625 -7.363281 C 6.0625 -6.832031 5.632812 -6.46875 5.277344 -6.273438 C 4.910156 -6.46875 4.503906 -6.832031 4.503906 -7.363281 L 4.503906 -7.699219 L 2.207031 -7.699219 L 2.207031 -7.363281 C 2.207031 -6.984375 2.0625 -6.660156 1.769531 -6.375 C 1.472656 -6.101562 1.109375 -5.917969 0.652344 -5.847656 L 0.660156 -4.292969 C 1.21875 -4.292969 1.757812 -4.402344 2.289062 -4.625 C 2.804688 -4.851562 3.183594 -5.085938 3.394531 -5.339844 C 3.621094 -5.105469 3.925781 -4.902344 4.3125 -4.726562 C 4.707031 -4.566406 5.042969 -4.453125 5.308594 -4.402344 C 5.550781 -4.464844 5.867188 -4.574219 6.253906 -4.738281 C 6.640625 -4.910156 6.957031 -5.105469 7.167969 -5.339844 C 7.394531 -5.085938 7.757812 -4.851562 8.289062 -4.625 C 8.804688 -4.402344 9.355469 -4.292969 9.914062 -4.292969 Z M 10.261719 -2.726562 L 10.261719 -4.140625 L 0.285156 -4.140625 L 0.285156 -2.726562 Z M 9.773438 1.6875 L 9.773438 0.4375 L 3.214844 0.4375 L 3.214844 0.203125 L 9.679688 0.203125 L 9.679688 -2.410156 L 0.804688 -2.410156 L 0.804688 -1.179688 L 7.320312 -1.179688 L 7.320312 -0.945312 L 0.855469 -0.945312 L 0.855469 1.6875 Z M 9.773438 1.6875 "/></g></g></g><g fill="#000000" fill-opacity="1"><g transform="translate(168.305652, 189.96138)"><g><path d="M 6.824219 -3.730469 C 6.324219 -3.78125 5.855469 -3.996094 5.441406 -4.394531 C 5.035156 -4.789062 4.820312 -5.472656 4.820312 -6.445312 L 4.820312 -7.667969 L 2.410156 -7.667969 L 2.410156 -6.445312 C 2.410156 -5.472656 2.1875 -4.789062 1.757812 -4.394531 C 1.320312 -3.996094 0.875 -3.78125 0.386719 -3.730469 L 0.386719 -2.0625 C 0.945312 -2.074219 1.566406 -2.207031 2.238281 -2.472656 C 2.9375 -2.734375 3.386719 -3.0625 3.628906 -3.445312 C 3.855469 -3.0625 4.300781 -2.734375 4.960938 -2.472656 C 5.632812 -2.207031 6.242188 -2.074219 6.824219 -2.0625 Z M 9.640625 -1.058594 L 9.640625 -7.65625 L 7.269531 -7.65625 L 7.269531 -1.058594 Z M 9.671875 1.6875 L 9.671875 0.101562 L 3.691406 0.101562 L 3.691406 -1.832031 L 1.3125 -1.832031 L 1.3125 1.6875 Z M 9.671875 1.6875 "/></g></g></g><g fill="#000000" fill-opacity="1"><g transform="translate(178.84058, 189.96138)"><g><path d="M 6.488281 -4.496094 C 5.988281 -4.546875 5.550781 -4.738281 5.15625 -5.085938 C 4.921875 -5.296875 4.75 -5.625 4.65625 -6.070312 L 6.4375 -6.070312 L 6.4375 -7.636719 L 0.214844 -7.636719 L 0.214844 -6.070312 L 2.0625 -6.070312 C 1.960938 -5.625 1.78125 -5.296875 1.523438 -5.085938 C 1.109375 -4.738281 0.652344 -4.546875 0.164062 -4.496094 L 0.164062 -2.828125 C 0.730469 -2.835938 1.332031 -2.949219 1.984375 -3.183594 C 2.632812 -3.417969 3.113281 -3.730469 3.386719 -4.117188 C 3.628906 -3.730469 4.066406 -3.417969 4.699219 -3.183594 C 5.328125 -2.949219 5.929688 -2.835938 6.488281 -2.828125 Z M 9.140625 -2.804688 L 9.140625 -4.292969 L 10.617188 -4.292969 L 10.617188 -6.070312 L 9.140625 -6.070312 L 9.140625 -7.667969 L 6.773438 -7.667969 L 6.773438 -2.804688 Z M 9.140625 1.6875 L 9.140625 -2.601562 L 6.773438 -2.601562 L 6.773438 -2.054688 L 3.070312 -2.054688 L 3.070312 -2.601562 L 0.703125 -2.601562 L 0.703125 1.6875 Z M 6.773438 0.101562 L 3.070312 0.101562 L 3.070312 -0.46875 L 6.773438 -0.46875 Z M 6.773438 0.101562 "/></g></g></g><g fill="#000000" fill-opacity="1"><g transform="translate(189.375509, 189.96138)"><g/></g></g><g fill="#000000" fill-opacity="1"><g transform="translate(192.354978, 189.96138)"><g><path d="M 6.113281 -0.652344 C 6.222656 -1.046875 6.324219 -1.445312 6.386719 -1.820312 C 6.457031 -2.195312 6.488281 -2.675781 6.488281 -3.253906 L 6.488281 -7.625 L 0.601562 -7.625 L 0.601562 -6.039062 L 4.140625 -6.039062 L 4.140625 -3.191406 C 4.140625 -2.308594 4.085938 -1.464844 3.824219 -0.652344 Z M 9.285156 1.6875 L 9.285156 -2.398438 L 10.71875 -2.398438 L 10.71875 -4.160156 L 9.285156 -4.160156 L 9.285156 -7.65625 L 6.933594 -7.65625 L 6.933594 -0.609375 C 6.933594 -0.203125 6.203125 0.0507812 5.703125 0.0507812 L 3.671875 0.0507812 L 3.671875 -4.320312 L 1.34375 -4.320312 L 1.34375 0.0507812 L 0.386719 0.0507812 L 0.386719 1.628906 L 5.632812 1.628906 C 6.285156 1.628906 6.710938 1.351562 6.933594 0.976562 L 6.933594 1.6875 Z M 9.285156 1.6875 "/></g></g></g><g fill="#000000" fill-opacity="1"><g transform="translate(202.889906, 189.96138)"><g/></g></g><g fill="#000000" fill-opacity="1"><g transform="translate(205.869375, 189.96138)"><g><path d="M 6.253906 -4.890625 C 6.253906 -5.246094 6.191406 -5.574219 6.070312 -5.835938 L 6.578125 -5.835938 L 6.578125 -7.371094 L 4.546875 -7.371094 L 4.546875 -8.277344 L 2.195312 -8.277344 L 2.195312 -7.371094 L 0.0195312 -7.371094 L 0.0195312 -5.835938 L 0.570312 -5.835938 C 0.4375 -5.574219 0.375 -5.246094 0.375 -4.890625 L 0.375 -4.554688 C 0.375 -3.773438 0.671875 -3.203125 1.28125 -2.867188 C 1.890625 -2.53125 2.574219 -2.359375 3.34375 -2.359375 C 4.117188 -2.359375 4.789062 -2.53125 5.378906 -2.867188 C 5.96875 -3.203125 6.253906 -3.773438 6.253906 -4.554688 Z M 3.894531 -4.617188 C 3.894531 -4.078125 3.628906 -3.964844 3.34375 -3.964844 C 3.019531 -3.964844 2.734375 -4.097656 2.734375 -4.617188 L 2.734375 -4.933594 C 2.734375 -5.449219 3.019531 -5.582031 3.34375 -5.582031 C 3.628906 -5.582031 3.894531 -5.492188 3.894531 -4.933594 Z M 9.140625 -2.328125 L 9.140625 -4.230469 L 10.617188 -4.230469 L 10.617188 -5.980469 L 9.140625 -5.980469 L 9.140625 -7.65625 L 6.773438 -7.65625 L 6.773438 -2.328125 Z M 9.140625 1.6875 L 9.140625 -2.042969 L 0.691406 -2.042969 L 0.691406 1.6875 Z M 6.773438 0.101562 L 3.050781 0.101562 L 3.050781 -0.457031 L 6.773438 -0.457031 Z M 6.773438 0.101562 "/></g></g></g><g fill="#000000" fill-opacity="1"><g transform="translate(216.404304, 189.96138)"><g><path d="M 7.972656 1.679688 L 7.972656 -7.65625 L 6.03125 -7.65625 L 6.03125 -4.515625 L 5.652344 -4.515625 L 5.652344 -7.636719 L 0.347656 -7.636719 L 0.347656 -6.0625 L 1.421875 -6.0625 L 1.421875 -4.25 C 1.421875 -3.488281 1.320312 -2.949219 1.128906 -2.632812 C 0.925781 -2.320312 0.660156 -2.105469 0.335938 -1.992188 L 0.335938 -0.265625 C 1.199219 -0.457031 1.933594 -0.824219 2.511719 -1.363281 C 3.089844 -1.902344 3.386719 -2.898438 3.386719 -4.351562 L 3.386719 -6.0625 L 3.691406 -6.0625 L 3.691406 -4.117188 C 3.691406 -2.601562 3.355469 -1.574219 2.695312 -1.039062 C 2.023438 -0.5 1.242188 -0.152344 0.347656 0 L 0.347656 1.648438 C 1.789062 1.515625 3.050781 1.015625 4.085938 0.140625 C 4.960938 -0.578125 5.472656 -1.574219 5.613281 -2.828125 L 6.03125 -2.828125 L 6.03125 1.679688 Z M 10.230469 1.679688 L 10.230469 -7.65625 L 8.257812 -7.65625 L 8.257812 1.679688 Z M 10.230469 1.679688 "/></g></g></g><g fill="#000000" fill-opacity="1"><g transform="translate(226.930369, 189.96138)"><g/></g></g><g fill="#000000" fill-opacity="1"><g transform="translate(113.057362, 203.94352)"><g><path d="M 9.140625 -2.523438 L 9.140625 -4.300781 L 10.617188 -4.300781 L 10.617188 -6.070312 L 9.140625 -6.070312 L 9.140625 -7.667969 L 6.773438 -7.667969 L 6.773438 -4.675781 C 6.140625 -4.351562 5.390625 -4.242188 4.769531 -4.242188 L 2.898438 -4.242188 L 2.898438 -6.0625 L 6.285156 -6.0625 L 6.285156 -7.636719 L 0.519531 -7.636719 L 0.519531 -2.652344 L 4.675781 -2.652344 C 5.296875 -2.652344 6.164062 -2.746094 6.773438 -3.113281 L 6.773438 -2.523438 Z M 7.136719 1.707031 C 7.878906 1.707031 8.480469 1.503906 8.90625 1.109375 C 9.34375 0.710938 9.570312 0.242188 9.570312 -0.292969 C 9.570312 -0.832031 9.34375 -1.300781 8.90625 -1.699219 C 8.480469 -2.09375 7.878906 -2.296875 7.136719 -2.296875 L 3.089844 -2.296875 C 2.359375 -2.296875 1.78125 -2.09375 1.332031 -1.699219 C 0.894531 -1.300781 0.671875 -0.832031 0.671875 -0.292969 C 0.671875 0.242188 0.894531 0.710938 1.332031 1.109375 C 1.78125 1.503906 2.359375 1.707031 3.089844 1.707031 Z M 6.703125 -0.703125 C 7.035156 -0.703125 7.21875 -0.527344 7.21875 -0.292969 C 7.21875 -0.0820312 7.035156 0.113281 6.703125 0.113281 L 3.539062 0.113281 C 3.203125 0.113281 3.019531 -0.0820312 3.019531 -0.292969 C 3.019531 -0.527344 3.203125 -0.703125 3.539062 -0.703125 Z M 6.703125 -0.703125 "/></g></g></g><g fill="#000000" fill-opacity="1"><g transform="translate(123.59229, 203.94352)"><g><path d="M 6.824219 -3.730469 C 6.324219 -3.78125 5.855469 -3.996094 5.441406 -4.394531 C 5.035156 -4.789062 4.820312 -5.472656 4.820312 -6.445312 L 4.820312 -7.667969 L 2.410156 -7.667969 L 2.410156 -6.445312 C 2.410156 -5.472656 2.1875 -4.789062 1.757812 -4.394531 C 1.320312 -3.996094 0.875 -3.78125 0.386719 -3.730469 L 0.386719 -2.0625 C 0.945312 -2.074219 1.566406 -2.207031 2.238281 -2.472656 C 2.9375 -2.734375 3.386719 -3.0625 3.628906 -3.445312 C 3.855469 -3.0625 4.300781 -2.734375 4.960938 -2.472656 C 5.632812 -2.207031 6.242188 -2.074219 6.824219 -2.0625 Z M 9.640625 -1.058594 L 9.640625 -7.65625 L 7.269531 -7.65625 L 7.269531 -1.058594 Z M 9.671875 1.6875 L 9.671875 0.101562 L 3.691406 0.101562 L 3.691406 -1.832031 L 1.3125 -1.832031 L 1.3125 1.6875 Z M 9.671875 1.6875 "/></g></g></g><g fill="#000000" fill-opacity="1"><g transform="translate(134.127219, 203.94352)"><g><path d="M 6.957031 -5.492188 C 6.957031 -6.273438 6.628906 -6.855469 5.988281 -7.21875 C 5.359375 -7.585938 4.625 -7.769531 3.773438 -7.769531 C 2.9375 -7.769531 2.1875 -7.585938 1.535156 -7.21875 C 0.882812 -6.855469 0.558594 -6.273438 0.558594 -5.492188 L 0.558594 -2.765625 C 0.558594 -1.984375 0.882812 -1.402344 1.535156 -1.027344 C 2.1875 -0.652344 2.9375 -0.46875 3.773438 -0.46875 C 4.625 -0.46875 5.359375 -0.652344 5.988281 -1.027344 C 6.628906 -1.402344 6.957031 -1.984375 6.957031 -2.765625 Z M 4.503906 -2.828125 C 4.503906 -2.289062 4.179688 -2.074219 3.773438 -2.074219 C 3.386719 -2.074219 3.011719 -2.308594 3.011719 -2.828125 L 3.011719 -5.289062 C 3.011719 -5.804688 3.386719 -6.039062 3.773438 -6.039062 C 4.179688 -6.039062 4.503906 -5.847656 4.503906 -5.289062 Z M 9.742188 1.6875 L 9.742188 -7.65625 L 7.394531 -7.65625 L 7.394531 -0.679688 C 7.394531 -0.164062 6.496094 0.0507812 6.070312 0.0507812 L 0.558594 0.0507812 L 0.558594 1.628906 L 6 1.628906 C 6.652344 1.628906 7.167969 1.28125 7.394531 0.90625 L 7.394531 1.6875 Z M 9.742188 1.6875 "/></g></g></g><g fill="#000000" fill-opacity="1"><g transform="translate(144.662147, 203.94352)"><g/></g></g><g fill="#000000" fill-opacity="1"><g transform="translate(147.641617, 203.94352)"><g><path d="M 6.703125 -4.179688 C 6.203125 -4.230469 5.765625 -4.421875 5.359375 -4.769531 C 5.074219 -5.023438 4.890625 -5.460938 4.808594 -6.070312 L 6.640625 -6.070312 L 6.640625 -7.636719 L 0.417969 -7.636719 L 0.417969 -6.070312 L 2.328125 -6.070312 C 2.246094 -5.460938 2.054688 -5.023438 1.730469 -4.769531 C 1.3125 -4.421875 0.863281 -4.230469 0.375 -4.179688 L 0.375 -2.511719 C 0.933594 -2.523438 1.546875 -2.632812 2.195312 -2.867188 C 2.847656 -3.101562 3.324219 -3.417969 3.601562 -3.804688 C 3.84375 -3.417969 4.28125 -3.101562 4.910156 -2.867188 C 5.542969 -2.632812 6.132812 -2.523438 6.703125 -2.511719 Z M 9.640625 -2.511719 L 9.640625 -7.667969 L 7.269531 -7.667969 L 7.269531 -2.511719 Z M 9.640625 1.699219 L 9.640625 -2.296875 L 1.199219 -2.296875 L 1.199219 -0.722656 L 7.269531 -0.722656 L 7.269531 1.699219 Z M 9.640625 1.699219 "/></g></g></g><g fill="#000000" fill-opacity="1"><g transform="translate(158.176545, 203.94352)"><g><path d="M 9.640625 -2.847656 L 9.640625 -7.667969 L 7.269531 -7.667969 L 7.269531 -6.039062 L 6.558594 -6.039062 C 6.46875 -6.609375 6.164062 -7.027344 5.675781 -7.3125 C 5.0625 -7.667969 4.34375 -7.839844 3.507812 -7.839844 C 2.695312 -7.839844 1.960938 -7.667969 1.34375 -7.3125 C 0.730469 -6.964844 0.417969 -6.40625 0.417969 -5.625 L 0.417969 -5.042969 C 0.417969 -4.261719 0.730469 -3.691406 1.34375 -3.335938 C 1.960938 -2.980469 2.695312 -2.804688 3.507812 -2.804688 C 4.34375 -2.804688 5.0625 -2.980469 5.675781 -3.335938 C 6.121094 -3.601562 6.40625 -3.976562 6.527344 -4.472656 L 7.269531 -4.472656 L 7.269531 -2.847656 Z M 9.640625 1.6875 L 9.640625 -2.601562 L 7.269531 -2.601562 L 7.269531 -2.054688 L 3.578125 -2.054688 L 3.578125 -2.601562 L 1.210938 -2.601562 L 1.210938 1.6875 Z M 7.269531 0.101562 L 3.578125 0.101562 L 3.578125 -0.46875 L 7.269531 -0.46875 Z M 4.117188 -5.113281 C 4.117188 -4.574219 3.875 -4.414062 3.507812 -4.414062 C 3.132812 -4.414062 2.878906 -4.597656 2.878906 -5.113281 L 2.878906 -5.410156 C 2.878906 -5.929688 3.132812 -6.113281 3.507812 -6.113281 C 3.875 -6.113281 4.117188 -5.96875 4.117188 -5.410156 Z M 4.117188 -5.113281 "/></g></g></g><g fill="#000000" fill-opacity="1"><g transform="translate(168.711474, 203.94352)"><g><path d="M 7.523438 -4.332031 C 9.007812 -4.332031 9.957031 -4.992188 9.957031 -6.011719 C 9.957031 -7.015625 9.007812 -7.699219 7.523438 -7.699219 L 3 -7.699219 C 2.277344 -7.699219 1.6875 -7.546875 1.25 -7.230469 C 0.804688 -6.914062 0.589844 -6.507812 0.589844 -6.011719 C 0.589844 -4.992188 1.546875 -4.332031 3 -4.332031 Z M 7.097656 -6.191406 C 7.445312 -6.191406 7.617188 -6.132812 7.617188 -6.011719 C 7.617188 -5.886719 7.484375 -5.828125 7.136719 -5.828125 L 3.445312 -5.828125 C 3.113281 -5.828125 2.9375 -5.886719 2.9375 -6.011719 C 2.9375 -6.132812 3.113281 -6.191406 3.445312 -6.191406 Z M 10.261719 -2.703125 L 10.261719 -4.109375 L 0.285156 -4.109375 L 0.285156 -2.703125 Z M 9.773438 1.6875 L 9.773438 0.4375 L 3.214844 0.4375 L 3.214844 0.203125 L 9.679688 0.203125 L 9.679688 -2.410156 L 0.804688 -2.410156 L 0.804688 -1.179688 L 7.320312 -1.179688 L 7.320312 -0.945312 L 0.855469 -0.945312 L 0.855469 1.6875 Z M 9.773438 1.6875 "/></g></g></g><g fill="#000000" fill-opacity="1"><g transform="translate(179.246402, 203.94352)"><g/></g></g><g fill="#000000" fill-opacity="1"><g transform="translate(182.225871, 203.94352)"><g><path d="M 6.488281 -4.007812 C 5.988281 -4.058594 5.550781 -4.25 5.15625 -4.597656 C 4.871094 -4.851562 4.675781 -5.265625 4.605469 -5.867188 L 6.4375 -5.867188 L 6.4375 -7.433594 L 4.566406 -7.433594 L 4.566406 -8.289062 L 2.164062 -8.289062 L 2.164062 -7.433594 L 0.214844 -7.433594 L 0.214844 -5.867188 L 2.113281 -5.867188 C 2.035156 -5.265625 1.839844 -4.851562 1.523438 -4.597656 C 1.109375 -4.25 0.652344 -4.058594 0.164062 -4.007812 L 0.164062 -2.339844 C 0.730469 -2.347656 1.332031 -2.460938 1.984375 -2.695312 C 2.632812 -2.929688 3.113281 -3.242188 3.386719 -3.628906 C 3.628906 -3.242188 4.066406 -2.929688 4.699219 -2.695312 C 5.328125 -2.460938 5.929688 -2.347656 6.488281 -2.339844 Z M 9.140625 -2.296875 L 9.140625 -4.230469 L 10.617188 -4.230469 L 10.617188 -5.980469 L 9.140625 -5.980469 L 9.140625 -7.65625 L 6.773438 -7.65625 L 6.773438 -2.296875 Z M 9.285156 0.242188 C 8.492188 0.242188 7.75 0.113281 7.109375 -0.152344 C 6.824219 -0.273438 6.609375 -0.40625 6.457031 -0.570312 L 9.164062 -0.570312 L 9.164062 -2.0625 L 0.703125 -2.0625 L 0.703125 -0.570312 L 3.457031 -0.570312 C 3.304688 -0.40625 3.082031 -0.265625 2.796875 -0.152344 C 2.15625 0.113281 1.421875 0.242188 0.621094 0.242188 L 0.621094 1.75 C 1.574219 1.75 2.472656 1.628906 3.253906 1.371094 C 4.046875 1.117188 4.625 0.832031 4.953125 0.519531 C 5.296875 0.832031 5.855469 1.117188 6.640625 1.371094 C 7.445312 1.628906 8.316406 1.75 9.285156 1.75 Z M 9.285156 0.242188 "/></g></g></g><g fill="#000000" fill-opacity="1"><g transform="translate(192.7608, 203.94352)"><g><path d="M 6.273438 -5.5 C 6.273438 -6.285156 5.988281 -6.863281 5.421875 -7.230469 C 4.859375 -7.597656 4.191406 -7.777344 3.40625 -7.777344 C 2.632812 -7.777344 1.960938 -7.597656 1.382812 -7.230469 C 0.804688 -6.863281 0.507812 -6.285156 0.507812 -5.5 L 0.507812 -0.589844 C 0.507812 0.191406 0.804688 0.773438 1.382812 1.148438 C 1.960938 1.523438 2.632812 1.707031 3.40625 1.707031 C 4.191406 1.707031 4.859375 1.523438 5.421875 1.148438 C 5.988281 0.773438 6.273438 0.191406 6.273438 -0.589844 Z M 3.90625 -0.652344 C 3.90625 -0.113281 3.703125 0.101562 3.40625 0.101562 C 3.089844 0.101562 2.867188 -0.132812 2.867188 -0.652344 L 2.867188 -5.296875 C 2.867188 -5.816406 3.089844 -6.050781 3.40625 -6.050781 C 3.703125 -6.050781 3.90625 -5.855469 3.90625 -5.296875 Z M 9.132812 1.6875 L 9.132812 -2.726562 L 10.617188 -2.726562 L 10.617188 -4.496094 L 9.132812 -4.496094 L 9.132812 -7.65625 L 6.761719 -7.65625 L 6.761719 1.6875 Z M 9.132812 1.6875 "/></g></g></g><g fill="#000000" fill-opacity="1"><g transform="translate(203.295728, 203.94352)"><g><path d="M 9.691406 -1.585938 L 9.691406 -7.636719 L 7.332031 -7.636719 L 7.332031 -6.222656 L 3.214844 -6.222656 L 3.214844 -7.636719 L 0.863281 -7.636719 L 0.863281 -1.585938 Z M 7.332031 -3.164062 L 3.214844 -3.164062 L 3.214844 -4.648438 L 7.332031 -4.648438 Z M 10.238281 1.65625 L 10.238281 0.0820312 L 6.457031 0.0820312 L 6.457031 -1.28125 L 4.109375 -1.28125 L 4.109375 0.0820312 L 0.304688 0.0820312 L 0.304688 1.65625 Z M 10.238281 1.65625 "/></g></g></g><g fill="#000000" fill-opacity="1"><g transform="translate(213.830657, 203.94352)"><g><path d="M 5.1875 -0.132812 C 4.484375 -0.417969 3.976562 -1.25 3.976562 -2.96875 L 3.976562 -7.648438 L 1.800781 -7.648438 L 1.800781 -2.96875 C 1.800781 -1.992188 1.648438 -1.28125 1.3125 -0.832031 C 0.996094 -0.398438 0.621094 -0.132812 0.214844 -0.0625 L 0.214844 1.648438 C 0.679688 1.636719 1.210938 1.472656 1.769531 1.148438 C 2.339844 0.824219 2.714844 0.46875 2.898438 0.0820312 C 3.0625 0.4375 3.367188 0.761719 3.824219 1.058594 C 4.269531 1.363281 4.738281 1.554688 5.1875 1.628906 Z M 7.554688 1.679688 L 7.554688 -7.65625 L 5.441406 -7.65625 L 5.441406 -4.738281 L 4.34375 -4.738281 L 4.34375 -3.050781 L 5.441406 -3.050781 L 5.441406 1.679688 Z M 10.035156 1.679688 L 10.035156 -7.65625 L 7.878906 -7.65625 L 7.878906 1.679688 Z M 10.035156 1.679688 "/></g></g></g><g fill="#000000" fill-opacity="1"><g transform="translate(224.365585, 203.94352)"><g><path d="M 7.261719 -1.992188 C 8.15625 -1.992188 8.847656 -2.269531 9.355469 -2.828125 C 9.855469 -3.386719 10.097656 -4.046875 10.097656 -4.800781 C 10.097656 -5.550781 9.855469 -6.214844 9.355469 -6.773438 C 8.847656 -7.34375 8.15625 -7.625 7.261719 -7.625 L 3.335938 -7.625 C 2.429688 -7.625 1.71875 -7.34375 1.21875 -6.773438 C 0.722656 -6.214844 0.46875 -5.550781 0.46875 -4.800781 C 0.46875 -4.046875 0.722656 -3.386719 1.21875 -2.828125 C 1.71875 -2.269531 2.429688 -1.992188 3.335938 -1.992188 Z M 6.671875 -6.050781 C 7.351562 -6.050781 7.75 -5.523438 7.75 -4.800781 C 7.75 -4.078125 7.351562 -3.570312 6.671875 -3.570312 L 3.914062 -3.570312 C 3.234375 -3.570312 2.816406 -4.078125 2.816406 -4.800781 C 2.816406 -5.523438 3.253906 -6.050781 3.914062 -6.050781 Z M 10.238281 1.65625 L 10.238281 0.0820312 L 8.175781 0.0820312 L 8.175781 -1.707031 L 5.847656 -1.707031 L 5.847656 0.0820312 L 4.648438 0.0820312 L 4.648438 -1.707031 L 2.320312 -1.707031 L 2.320312 0.0820312 L 0.304688 0.0820312 L 0.304688 1.65625 Z M 10.238281 1.65625 "/></g></g></g><g fill="#000000" fill-opacity="1"><g transform="translate(234.900514, 203.94352)"><g><path d="M 3.539062 -0.832031 L 3.945312 -7.472656 L 1.300781 -7.472656 L 1.699219 -0.832031 Z M 3.824219 1.941406 L 3.824219 -0.101562 L 1.371094 -0.101562 L 1.371094 1.941406 Z M 3.824219 1.941406 "/></g></g></g></svg>