<svg xmlns="http://www.w3.org/2000/svg" xmlns:xlink="http://www.w3.org/1999/xlink" width="450" zoomAndPan="magnify" viewBox="0 0 337.5 74.999997" height="100" preserveAspectRatio="xMidYMid meet" version="1.0"><defs><g/></defs><g fill="#000000" fill-opacity="1"><g transform="translate(99.489573, 34.762531)"><g><path d="M 12.773438 -16.03125 C 12.773438 -15.871094 12.742188 -15.710938 12.679688 -15.585938 C 12.582031 -15.390625 12.390625 -15.328125 12.136719 -15.328125 C 11.847656 -15.328125 11.6875 -15.390625 11.625 -15.585938 C 11.527344 -15.710938 11.496094 -15.871094 11.496094 -16.03125 L 11.496094 -18.457031 C 11.496094 -18.585938 11.527344 -18.746094 11.625 -18.9375 C 11.6875 -19.066406 11.847656 -19.160156 12.136719 -19.160156 C 12.390625 -19.160156 12.582031 -19.066406 12.679688 -18.9375 C 12.742188 -18.746094 12.773438 -18.585938 12.773438 -18.457031 Z M 23.3125 -10.21875 L 31.933594 -10.21875 L 31.933594 -13.605469 L 33.53125 -13.605469 L 33.53125 -20.597656 L 31.933594 -20.597656 L 31.933594 -23.949219 L 23.3125 -23.949219 Z M 22.035156 -17.5 C 22.035156 -19.863281 21.171875 -21.585938 19.511719 -22.671875 C 17.820312 -23.726562 15.359375 -24.269531 12.167969 -24.269531 C 8.910156 -24.269531 6.417969 -23.726562 4.757812 -22.671875 C 3.066406 -21.585938 2.234375 -19.863281 2.234375 -17.5 L 2.234375 -16.957031 C 2.234375 -14.59375 3.066406 -12.871094 4.757812 -11.816406 C 6.417969 -10.730469 8.878906 -10.21875 12.167969 -10.21875 C 15.390625 -10.21875 17.851562 -10.730469 19.542969 -11.816406 C 21.203125 -12.871094 22.035156 -14.59375 22.035156 -16.957031 Z M 3.195312 -5.109375 L 23.375 -5.109375 L 23.375 -4.3125 L 3.195312 -4.3125 L 3.195312 4.789062 L 31.933594 4.789062 L 31.933594 0.605469 L 11.75 0.605469 L 11.75 -0.191406 L 31.933594 -0.191406 L 31.933594 -9.261719 L 3.195312 -9.261719 Z M 0.957031 -11.496094 L 1.628906 -11.496094 C 1.085938 -12.167969 0.671875 -12.964844 0.414062 -13.890625 C 0.128906 -14.785156 0 -15.808594 0 -16.957031 L 0 -17.5 C 0 -20.628906 1.023438 -22.929688 3.097656 -24.367188 C 5.140625 -25.769531 8.144531 -26.503906 12.167969 -26.503906 C 16.0625 -26.503906 19.03125 -25.804688 21.078125 -24.429688 L 21.078125 -26.1875 L 34.171875 -26.1875 L 35.671875 -24.492188 L 35.671875 -22.832031 L 37.269531 -21.140625 L 37.269531 -9.867188 L 35.671875 -9.867188 L 35.671875 8.527344 L 2.652344 8.527344 L 0.957031 7.027344 Z M 0.957031 -11.496094 "/></g></g></g><g fill="#000000" fill-opacity="1"><g transform="translate(135.158877, 34.762531)"><g><path d="M 31.617188 -7.824219 L 31.617188 -12.804688 L 2.234375 -12.804688 L 2.234375 -7.824219 Z M 16.925781 -13.445312 C 18.203125 -13.796875 19.320312 -14.308594 20.308594 -15.007812 C 21.269531 -15.679688 22.066406 -16.414062 22.640625 -17.246094 C 23.089844 -16.542969 23.695312 -15.96875 24.460938 -15.519531 C 25.195312 -15.042969 25.960938 -14.65625 26.792969 -14.371094 C 27.589844 -14.050781 28.390625 -13.828125 29.21875 -13.699219 C 29.988281 -13.539062 30.6875 -13.445312 31.296875 -13.445312 L 31.296875 -19.992188 C 31.007812 -19.992188 30.625 -20.085938 30.179688 -20.214844 C 29.667969 -20.34375 29.1875 -20.535156 28.742188 -20.851562 C 28.261719 -21.140625 27.847656 -21.554688 27.527344 -22.066406 C 27.144531 -22.546875 26.984375 -23.183594 26.984375 -23.949219 L 18.363281 -23.949219 C 18.363281 -23.089844 18.234375 -22.386719 17.980469 -21.875 C 17.691406 -21.300781 17.339844 -20.886719 16.894531 -20.597656 C 16.445312 -20.886719 16.128906 -21.300781 15.871094 -21.875 C 15.617188 -22.386719 15.488281 -23.089844 15.488281 -23.949219 L 6.867188 -23.949219 C 6.867188 -23.183594 6.675781 -22.546875 6.355469 -22.066406 C 5.972656 -21.554688 5.554688 -21.140625 5.109375 -20.851562 C 4.628906 -20.535156 4.152344 -20.34375 3.703125 -20.214844 C 3.195312 -20.085938 2.808594 -19.992188 2.554688 -19.992188 L 2.554688 -13.445312 C 3.128906 -13.445312 3.832031 -13.539062 4.628906 -13.699219 C 5.398438 -13.828125 6.226562 -14.050781 7.058594 -14.371094 C 7.855469 -14.65625 8.621094 -15.042969 9.390625 -15.519531 C 10.089844 -15.96875 10.699219 -16.542969 11.210938 -17.246094 C 11.75 -16.414062 12.519531 -15.679688 13.539062 -15.007812 C 14.5 -14.308594 15.648438 -13.796875 16.925781 -13.445312 Z M 2.554688 -3.609375 L 22.738281 -3.609375 L 22.738281 -2.808594 L 2.554688 -2.808594 L 2.554688 4.789062 L 31.296875 4.789062 L 31.296875 1.375 L 11.113281 1.375 L 11.113281 0.574219 L 31.296875 0.574219 L 31.296875 -7.027344 L 2.554688 -7.027344 Z M 30.722656 -24.492188 C 30.722656 -23.855469 30.816406 -23.3125 31.007812 -22.929688 C 31.457031 -22.609375 31.933594 -22.417969 32.414062 -22.289062 C 32.859375 -22.164062 33.242188 -22.066406 33.53125 -22.066406 L 35.03125 -20.375 L 35.03125 -13.667969 L 35.351562 -13.347656 L 35.351562 -4.085938 L 35.03125 -4.085938 L 35.03125 8.527344 L 2.011719 8.527344 L 0.320312 7.027344 L 0.320312 -5.460938 L 0 -5.589844 L 0 -15.042969 L 0.320312 -15.042969 L 0.320312 -22.066406 C 0.574219 -22.066406 0.957031 -22.164062 1.46875 -22.324219 C 1.917969 -22.449219 2.394531 -22.671875 2.875 -22.992188 C 3.320312 -23.28125 3.738281 -23.695312 4.121094 -24.207031 C 4.4375 -24.71875 4.628906 -25.355469 4.628906 -26.1875 L 29.21875 -26.1875 Z M 30.722656 -24.492188 "/></g></g></g><g fill="#000000" fill-opacity="1"><g transform="translate(168.912189, 34.762531)"><g><path d="M 22.992188 -3.160156 L 31.617188 -3.160156 L 31.617188 -23.949219 L 22.992188 -23.949219 Z M 22.035156 -14.625 C 21.238281 -14.753906 20.503906 -14.976562 19.832031 -15.265625 C 19.128906 -15.519531 18.554688 -15.871094 18.074219 -16.382812 C 17.5625 -16.828125 17.148438 -17.46875 16.894531 -18.234375 C 16.574219 -18.96875 16.445312 -19.894531 16.445312 -21.011719 L 16.445312 -23.949219 L 7.824219 -23.949219 L 7.824219 -21.011719 C 7.824219 -19.894531 7.664062 -18.96875 7.410156 -18.234375 C 7.089844 -17.46875 6.707031 -16.828125 6.226562 -16.382812 C 5.714844 -15.871094 5.109375 -15.519531 4.4375 -15.265625 C 3.738281 -14.976562 3 -14.753906 2.234375 -14.625 L 2.234375 -7.183594 C 3.195312 -7.25 4.121094 -7.410156 5.078125 -7.632812 C 6.003906 -7.824219 6.898438 -8.113281 7.761719 -8.496094 C 8.589844 -8.847656 9.390625 -9.324219 10.15625 -9.933594 C 10.890625 -10.507812 11.558594 -11.210938 12.136719 -12.101562 C 12.710938 -11.210938 13.347656 -10.507812 14.113281 -9.933594 C 14.847656 -9.324219 15.648438 -8.847656 16.511719 -8.496094 C 17.339844 -8.113281 18.234375 -7.824219 19.191406 -7.632812 C 20.117188 -7.410156 21.078125 -7.25 22.035156 -7.183594 Z M 11.496094 -6.386719 L 2.875 -6.386719 L 2.875 4.789062 L 31.617188 4.789062 L 31.617188 -2.203125 L 11.496094 -2.203125 Z M 20.183594 -19.417969 C 20.183594 -19.128906 20.183594 -18.777344 20.246094 -18.394531 C 20.277344 -17.980469 20.4375 -17.722656 20.757812 -17.597656 L 20.757812 -26.1875 L 33.851562 -26.1875 L 35.351562 -24.492188 L 35.351562 8.527344 L 2.332031 8.527344 L 0.640625 7.027344 L 0.640625 -4.277344 L 0 -4.726562 L 0 -16.511719 C 0.765625 -16.636719 1.5 -16.828125 2.203125 -17.054688 C 2.875 -17.246094 3.480469 -17.53125 3.992188 -17.882812 C 4.472656 -18.203125 4.855469 -18.648438 5.171875 -19.160156 C 5.429688 -19.671875 5.589844 -20.277344 5.589844 -21.011719 L 5.589844 -26.1875 L 18.683594 -26.1875 L 20.183594 -24.492188 Z M 15.234375 -4.4375 L 19.097656 -4.4375 C 18.363281 -4.628906 17.691406 -4.886719 17.054688 -5.140625 C 16.382812 -5.398438 15.777344 -5.683594 15.234375 -6.066406 Z M 15.234375 -4.4375 "/></g></g></g><g fill="#000000" fill-opacity="1"><g transform="translate(202.665501, 34.762531)"><g><path d="M 22.992188 -1.117188 L 11.496094 -1.117188 L 11.496094 -2.074219 L 22.992188 -2.074219 Z M 22.992188 -8.941406 L 31.617188 -8.941406 L 31.617188 -12.964844 L 33.210938 -12.964844 L 33.210938 -19.960938 L 31.617188 -19.960938 L 31.617188 -23.949219 L 22.992188 -23.949219 Z M 21.84375 -17.597656 L 21.84375 -23.949219 L 2.425781 -23.949219 L 2.425781 -17.597656 L 7.089844 -17.597656 C 6.609375 -16.796875 5.941406 -16.253906 5.109375 -15.933594 C 4.246094 -15.617188 3.289062 -15.390625 2.234375 -15.296875 L 2.234375 -8.78125 C 3.195312 -8.8125 4.121094 -8.910156 5.078125 -9.039062 C 6.003906 -9.164062 6.898438 -9.355469 7.761719 -9.675781 C 8.589844 -9.964844 9.390625 -10.378906 10.15625 -10.890625 C 10.890625 -11.367188 11.558594 -12.007812 12.136719 -12.835938 C 12.710938 -12.007812 13.347656 -11.367188 14.113281 -10.890625 C 14.847656 -10.378906 15.648438 -9.964844 16.511719 -9.675781 C 17.339844 -9.355469 18.234375 -9.164062 19.191406 -9.039062 C 20.117188 -8.910156 21.078125 -8.8125 22.035156 -8.78125 L 22.035156 -15.296875 C 20.949219 -15.390625 19.992188 -15.617188 19.160156 -15.933594 C 18.296875 -16.253906 17.628906 -16.796875 17.148438 -17.597656 Z M 11.496094 -7.984375 L 2.875 -7.984375 L 2.875 4.789062 L 31.617188 4.789062 L 31.617188 -7.984375 L 22.992188 -7.984375 L 22.992188 -7.027344 L 11.496094 -7.027344 Z M 0.640625 7.027344 L 0.640625 -6.003906 L 0 -6.449219 L 0 -17.339844 L 0.191406 -17.339844 L 0.191406 -26.1875 L 33.851562 -26.1875 L 35.351562 -24.492188 L 35.351562 -22.195312 L 36.949219 -20.503906 L 36.949219 -9.230469 L 35.351562 -9.230469 L 35.351562 8.527344 L 2.332031 8.527344 Z M 0.640625 7.027344 "/></g></g></g><g fill="#545454" fill-opacity="1"><g transform="translate(56.973426, 64.53282)"><g><path d="M 4.09375 -3.265625 L 2.640625 -3.265625 L 2.640625 0 L 0.796875 0 L 0.796875 -8.921875 L 4.109375 -8.921875 C 5.160156 -8.921875 5.972656 -8.6875 6.546875 -8.21875 C 7.117188 -7.75 7.40625 -7.082031 7.40625 -6.21875 C 7.40625 -5.613281 7.269531 -5.109375 7 -4.703125 C 6.738281 -4.296875 6.34375 -3.972656 5.8125 -3.734375 L 7.75 -0.078125 L 7.75 0 L 5.765625 0 Z M 2.640625 -4.75 L 4.109375 -4.75 C 4.578125 -4.75 4.9375 -4.863281 5.1875 -5.09375 C 5.4375 -5.332031 5.5625 -5.660156 5.5625 -6.078125 C 5.5625 -6.492188 5.441406 -6.820312 5.203125 -7.0625 C 4.972656 -7.3125 4.609375 -7.4375 4.109375 -7.4375 L 2.640625 -7.4375 Z M 2.640625 -4.75 "/></g></g></g><g fill="#545454" fill-opacity="1"><g transform="translate(69.579687, 64.53282)"><g><path d="M 6.15625 -3.859375 L 2.640625 -3.859375 L 2.640625 -1.46875 L 6.78125 -1.46875 L 6.78125 0 L 0.796875 0 L 0.796875 -8.921875 L 6.765625 -8.921875 L 6.765625 -7.4375 L 2.640625 -7.4375 L 2.640625 -5.3125 L 6.15625 -5.3125 Z M 6.15625 -3.859375 "/></g></g></g><g fill="#545454" fill-opacity="1"><g transform="translate(81.23703, 64.53282)"><g><path d="M 7.796875 -2.96875 C 7.722656 -2.007812 7.367188 -1.253906 6.734375 -0.703125 C 6.097656 -0.148438 5.253906 0.125 4.203125 0.125 C 3.066406 0.125 2.171875 -0.257812 1.515625 -1.03125 C 0.859375 -1.800781 0.53125 -2.859375 0.53125 -4.203125 L 0.53125 -4.75 C 0.53125 -5.601562 0.679688 -6.359375 0.984375 -7.015625 C 1.285156 -7.671875 1.71875 -8.171875 2.28125 -8.515625 C 2.84375 -8.867188 3.492188 -9.046875 4.234375 -9.046875 C 5.265625 -9.046875 6.09375 -8.769531 6.71875 -8.21875 C 7.351562 -7.664062 7.71875 -6.890625 7.8125 -5.890625 L 5.96875 -5.890625 C 5.925781 -6.460938 5.765625 -6.878906 5.484375 -7.140625 C 5.210938 -7.398438 4.796875 -7.53125 4.234375 -7.53125 C 3.617188 -7.53125 3.160156 -7.3125 2.859375 -6.875 C 2.554688 -6.4375 2.398438 -5.753906 2.390625 -4.828125 L 2.390625 -4.15625 C 2.390625 -3.195312 2.535156 -2.492188 2.828125 -2.046875 C 3.117188 -1.597656 3.578125 -1.375 4.203125 -1.375 C 4.773438 -1.375 5.203125 -1.503906 5.484375 -1.765625 C 5.765625 -2.023438 5.925781 -2.425781 5.96875 -2.96875 Z M 7.796875 -2.96875 "/></g></g></g><g fill="#545454" fill-opacity="1"><g transform="translate(94.04532, 64.53282)"><g><path d="M 4.09375 -3.265625 L 2.640625 -3.265625 L 2.640625 0 L 0.796875 0 L 0.796875 -8.921875 L 4.109375 -8.921875 C 5.160156 -8.921875 5.972656 -8.6875 6.546875 -8.21875 C 7.117188 -7.75 7.40625 -7.082031 7.40625 -6.21875 C 7.40625 -5.613281 7.269531 -5.109375 7 -4.703125 C 6.738281 -4.296875 6.34375 -3.972656 5.8125 -3.734375 L 7.75 -0.078125 L 7.75 0 L 5.765625 0 Z M 2.640625 -4.75 L 4.109375 -4.75 C 4.578125 -4.75 4.9375 -4.863281 5.1875 -5.09375 C 5.4375 -5.332031 5.5625 -5.660156 5.5625 -6.078125 C 5.5625 -6.492188 5.441406 -6.820312 5.203125 -7.0625 C 4.972656 -7.3125 4.609375 -7.4375 4.109375 -7.4375 L 2.640625 -7.4375 Z M 2.640625 -4.75 "/></g></g></g><g fill="#545454" fill-opacity="1"><g transform="translate(106.651579, 64.53282)"><g><path d="M 7.546875 -8.921875 L 7.546875 -3.046875 C 7.546875 -2.066406 7.238281 -1.289062 6.625 -0.71875 C 6.019531 -0.15625 5.1875 0.125 4.125 0.125 C 3.082031 0.125 2.253906 -0.148438 1.640625 -0.703125 C 1.035156 -1.253906 0.722656 -2.015625 0.703125 -2.984375 L 0.703125 -8.921875 L 2.546875 -8.921875 L 2.546875 -3.03125 C 2.546875 -2.445312 2.6875 -2.019531 2.96875 -1.75 C 3.25 -1.488281 3.632812 -1.359375 4.125 -1.359375 C 5.15625 -1.359375 5.679688 -1.898438 5.703125 -2.984375 L 5.703125 -8.921875 Z M 7.546875 -8.921875 "/></g></g></g><g fill="#545454" fill-opacity="1"><g transform="translate(119.508842, 64.53282)"><g><path d="M 2.75 0 L 0.90625 0 L 0.90625 -8.921875 L 2.75 -8.921875 Z M 2.75 0 "/></g></g></g><g fill="#545454" fill-opacity="1"><g transform="translate(127.768446, 64.53282)"><g><path d="M 7.515625 -7.4375 L 4.78125 -7.4375 L 4.78125 0 L 2.9375 0 L 2.9375 -7.4375 L 0.25 -7.4375 L 0.25 -8.921875 L 7.515625 -8.921875 Z M 7.515625 -7.4375 "/></g></g></g><g fill="#545454" fill-opacity="1"><g transform="translate(140.129823, 64.53282)"><g><path d="M 2.75 0 L 0.90625 0 L 0.90625 -8.921875 L 2.75 -8.921875 Z M 2.75 0 "/></g></g></g><g fill="#545454" fill-opacity="1"><g transform="translate(148.389427, 64.53282)"><g><path d="M 8.046875 0 L 6.21875 0 L 2.640625 -5.875 L 2.640625 0 L 0.796875 0 L 0.796875 -8.921875 L 2.640625 -8.921875 L 6.21875 -3.03125 L 6.21875 -8.921875 L 8.046875 -8.921875 Z M 8.046875 0 "/></g></g></g><g fill="#545454" fill-opacity="1"><g transform="translate(161.846651, 64.53282)"><g><path d="M 7.859375 -1.125 C 7.523438 -0.726562 7.054688 -0.421875 6.453125 -0.203125 C 5.847656 0.015625 5.175781 0.125 4.4375 0.125 C 3.664062 0.125 2.988281 -0.0390625 2.40625 -0.375 C 1.820312 -0.71875 1.375 -1.207031 1.0625 -1.84375 C 0.75 -2.488281 0.585938 -3.242188 0.578125 -4.109375 L 0.578125 -4.71875 C 0.578125 -5.601562 0.722656 -6.367188 1.015625 -7.015625 C 1.316406 -7.671875 1.75 -8.171875 2.3125 -8.515625 C 2.882812 -8.867188 3.550781 -9.046875 4.3125 -9.046875 C 5.375 -9.046875 6.203125 -8.789062 6.796875 -8.28125 C 7.390625 -7.78125 7.742188 -7.046875 7.859375 -6.078125 L 6.0625 -6.078125 C 5.976562 -6.585938 5.796875 -6.960938 5.515625 -7.203125 C 5.242188 -7.441406 4.863281 -7.5625 4.375 -7.5625 C 3.75 -7.5625 3.269531 -7.328125 2.9375 -6.859375 C 2.613281 -6.390625 2.445312 -5.691406 2.4375 -4.765625 L 2.4375 -4.1875 C 2.4375 -3.25 2.613281 -2.539062 2.96875 -2.0625 C 3.332031 -1.59375 3.859375 -1.359375 4.546875 -1.359375 C 5.234375 -1.359375 5.722656 -1.503906 6.015625 -1.796875 L 6.015625 -3.328125 L 4.34375 -3.328125 L 4.34375 -4.6875 L 7.859375 -4.6875 Z M 7.859375 -1.125 "/></g></g></g><g fill="#545454" fill-opacity="1"><g transform="translate(174.991657, 64.53282)"><g/></g></g><g fill="#545454" fill-opacity="1"><g transform="translate(182.718649, 64.53282)"><g><path d="M 2.640625 -3.140625 L 2.640625 0 L 0.796875 0 L 0.796875 -8.921875 L 4.28125 -8.921875 C 4.945312 -8.921875 5.535156 -8.796875 6.046875 -8.546875 C 6.554688 -8.304688 6.945312 -7.957031 7.21875 -7.5 C 7.488281 -7.050781 7.625 -6.539062 7.625 -5.96875 C 7.625 -5.09375 7.320312 -4.398438 6.71875 -3.890625 C 6.125 -3.390625 5.300781 -3.140625 4.25 -3.140625 Z M 2.640625 -4.625 L 4.28125 -4.625 C 4.757812 -4.625 5.125 -4.738281 5.375 -4.96875 C 5.632812 -5.195312 5.765625 -5.523438 5.765625 -5.953125 C 5.765625 -6.390625 5.632812 -6.742188 5.375 -7.015625 C 5.125 -7.285156 4.769531 -7.425781 4.3125 -7.4375 L 2.640625 -7.4375 Z M 2.640625 -4.625 "/></g></g></g><g fill="#545454" fill-opacity="1"><g transform="translate(195.410623, 64.53282)"><g><path d="M 2.640625 -1.46875 L 6.53125 -1.46875 L 6.53125 0 L 0.796875 0 L 0.796875 -8.921875 L 2.640625 -8.921875 Z M 2.640625 -1.46875 "/></g></g></g><g fill="#545454" fill-opacity="1"><g transform="translate(206.804723, 64.53282)"><g><path d="M 5.828125 -1.84375 L 2.609375 -1.84375 L 2 0 L 0.046875 0 L 3.359375 -8.921875 L 5.0625 -8.921875 L 8.40625 0 L 6.453125 0 Z M 3.109375 -3.328125 L 5.34375 -3.328125 L 4.21875 -6.671875 Z M 3.109375 -3.328125 "/></g></g></g><g fill="#545454" fill-opacity="1"><g transform="translate(219.845654, 64.53282)"><g><path d="M 7.515625 -7.4375 L 4.78125 -7.4375 L 4.78125 0 L 2.9375 0 L 2.9375 -7.4375 L 0.25 -7.4375 L 0.25 -8.921875 L 7.515625 -8.921875 Z M 7.515625 -7.4375 "/></g></g></g><g fill="#545454" fill-opacity="1"><g transform="translate(232.207038, 64.53282)"><g><path d="M 6.15625 -3.640625 L 2.640625 -3.640625 L 2.640625 0 L 0.796875 0 L 0.796875 -8.921875 L 6.609375 -8.921875 L 6.609375 -7.4375 L 2.640625 -7.4375 L 2.640625 -5.125 L 6.15625 -5.125 Z M 6.15625 -3.640625 "/></g></g></g><g fill="#545454" fill-opacity="1"><g transform="translate(243.680724, 64.53282)"><g><path d="M 8.125 -4.265625 C 8.125 -3.378906 7.96875 -2.601562 7.65625 -1.9375 C 7.34375 -1.28125 6.894531 -0.769531 6.3125 -0.40625 C 5.738281 -0.0507812 5.082031 0.125 4.34375 0.125 C 3.601562 0.125 2.941406 -0.0507812 2.359375 -0.40625 C 1.773438 -0.757812 1.320312 -1.265625 1 -1.921875 C 0.6875 -2.585938 0.53125 -3.347656 0.53125 -4.203125 L 0.53125 -4.65625 C 0.53125 -5.53125 0.6875 -6.300781 1 -6.96875 C 1.3125 -7.632812 1.753906 -8.144531 2.328125 -8.5 C 2.910156 -8.863281 3.570312 -9.046875 4.3125 -9.046875 C 5.0625 -9.046875 5.722656 -8.863281 6.296875 -8.5 C 6.878906 -8.144531 7.328125 -7.632812 7.640625 -6.96875 C 7.960938 -6.300781 8.125 -5.53125 8.125 -4.65625 Z M 6.265625 -4.65625 C 6.265625 -5.59375 6.09375 -6.300781 5.75 -6.78125 C 5.414062 -7.269531 4.941406 -7.515625 4.328125 -7.515625 C 3.710938 -7.515625 3.234375 -7.273438 2.890625 -6.796875 C 2.554688 -6.316406 2.390625 -5.613281 2.390625 -4.6875 L 2.390625 -4.265625 C 2.390625 -3.347656 2.554688 -2.640625 2.890625 -2.140625 C 3.222656 -1.640625 3.707031 -1.390625 4.34375 -1.390625 C 4.957031 -1.390625 5.425781 -1.628906 5.75 -2.109375 C 6.082031 -2.597656 6.253906 -3.304688 6.265625 -4.234375 Z M 6.265625 -4.65625 "/></g></g></g><g fill="#545454" fill-opacity="1"><g transform="translate(256.942049, 64.53282)"><g><path d="M 4.09375 -3.265625 L 2.640625 -3.265625 L 2.640625 0 L 0.796875 0 L 0.796875 -8.921875 L 4.109375 -8.921875 C 5.160156 -8.921875 5.972656 -8.6875 6.546875 -8.21875 C 7.117188 -7.75 7.40625 -7.082031 7.40625 -6.21875 C 7.40625 -5.613281 7.269531 -5.109375 7 -4.703125 C 6.738281 -4.296875 6.34375 -3.972656 5.8125 -3.734375 L 7.75 -0.078125 L 7.75 0 L 5.765625 0 Z M 2.640625 -4.75 L 4.109375 -4.75 C 4.578125 -4.75 4.9375 -4.863281 5.1875 -5.09375 C 5.4375 -5.332031 5.5625 -5.660156 5.5625 -6.078125 C 5.5625 -6.492188 5.441406 -6.820312 5.203125 -7.0625 C 4.972656 -7.3125 4.609375 -7.4375 4.109375 -7.4375 L 2.640625 -7.4375 Z M 2.640625 -4.75 "/></g></g></g><g fill="#545454" fill-opacity="1"><g transform="translate(269.548314, 64.53282)"><g><path d="M 3.203125 -8.921875 L 5.484375 -2.453125 L 7.765625 -8.921875 L 10.1875 -8.921875 L 10.1875 0 L 8.34375 0 L 8.34375 -2.4375 L 8.515625 -6.640625 L 6.109375 0 L 4.859375 0 L 2.453125 -6.640625 L 2.640625 -2.4375 L 2.640625 0 L 0.796875 0 L 0.796875 -8.921875 Z M 3.203125 -8.921875 "/></g></g></g></svg>